<svg width="323" height="371" viewBox="0 0 323 371" fill="none" xmlns="http://www.w3.org/2000/svg">
<g clip-path="url(#clip0_60_1245)">
<path d="M80.0282 73.8169C74.4742 57.2145 57.323 47.9871 46.0399 51.7617C34.7569 55.5364 26.6104 73.2267 32.1644 89.8291C37.3052 105.197 52.8828 114.068 63.5991 112.485C63.5218 112.62 63.4709 112.767 63.4492 112.921L63.1215 115.654C63.0965 115.862 63.1252 116.074 63.2049 116.268C63.2845 116.462 63.4124 116.632 63.5765 116.763C63.7406 116.894 63.9354 116.981 64.1424 117.015C64.3494 117.049 64.5618 117.03 64.7593 116.959L70.2794 114.98C70.4769 114.909 70.653 114.789 70.7911 114.631C70.9291 114.473 71.0245 114.282 71.0681 114.077C71.1117 113.872 71.1021 113.659 71.0402 113.458C70.9784 113.258 70.8663 113.076 70.7146 112.931L68.7248 111.029C68.6541 110.965 68.5759 110.908 68.492 110.862C78.0499 105.711 85.1803 89.2178 80.0282 73.8169Z" fill="#F2F2F2"/>
<path d="M59.922 61.6022C64.5343 63.9826 68.0567 68.043 69.7621 72.9453C71.4674 77.8476 71.2256 83.2175 69.0865 87.9466C68.6088 89.034 70.3653 89.6058 70.8399 88.5256C73.0858 83.4086 73.3143 77.6318 71.4794 72.3535C69.6445 67.0752 65.882 62.6857 60.9464 60.0653C59.9046 59.5133 58.8725 61.0461 59.922 61.6022Z" fill="white"/>
<path d="M304.888 49.6164C299.334 33.014 282.183 23.7867 270.9 27.5613C259.617 31.3359 251.47 49.0263 257.024 65.6286C262.165 80.9962 277.743 89.8678 288.459 88.2847C288.382 88.4191 288.331 88.567 288.309 88.7205L287.981 91.4535C287.956 91.6619 287.985 91.8731 288.065 92.0673C288.144 92.2614 288.272 92.4319 288.436 92.5627C288.6 92.6935 288.795 92.7802 289.002 92.8145C289.209 92.8488 289.421 92.8297 289.619 92.7588L295.139 90.7795C295.337 90.7087 295.513 90.5885 295.651 90.4305C295.789 90.2725 295.884 90.0817 295.928 89.8765C295.971 89.6712 295.962 89.4582 295.9 89.2577C295.838 89.0572 295.726 88.8758 295.574 88.7308L293.585 86.8288C293.514 86.764 293.436 86.7079 293.352 86.6615C302.91 81.5106 310.04 65.0173 304.888 49.6164Z" fill="#F2F2F2"/>
<path d="M284.782 37.4017C289.394 39.7822 292.916 43.8426 294.622 48.7448C296.327 53.6471 296.085 59.017 293.946 63.7461C293.469 64.8335 295.225 65.4053 295.7 64.3251C297.946 59.2082 298.174 53.4313 296.339 48.153C294.504 42.8747 290.742 38.4852 285.806 35.8649C284.764 35.3128 283.732 36.8456 284.782 37.4017Z" fill="white"/>
<path d="M174.308 22.895C168.754 6.29267 151.603 -2.93468 140.32 0.839933C129.037 4.61454 120.89 22.3049 126.444 38.9073C131.585 54.2748 147.163 63.1465 157.879 61.5633C157.802 61.6977 157.751 61.8456 157.729 61.9991L157.401 64.7322C157.376 64.9405 157.405 65.1518 157.485 65.3459C157.564 65.54 157.692 65.7106 157.856 65.8414C158.02 65.9721 158.215 66.0588 158.422 66.0931C158.629 66.1275 158.841 66.1083 159.039 66.0375L164.559 64.0581C164.757 63.9873 164.933 63.8672 165.071 63.7091C165.209 63.5511 165.304 63.3604 165.348 63.1551C165.391 62.9499 165.382 62.7369 165.32 62.5364C165.258 62.3358 165.146 62.1545 164.994 62.0095L163.005 60.1074C162.934 60.0427 162.856 59.9865 162.772 59.9401C172.33 54.7892 179.46 38.296 174.308 22.895Z" fill="#F2F2F2"/>
<path d="M154.202 10.6804C158.814 13.0608 162.336 17.1212 164.042 22.0235C165.747 26.9257 165.505 32.2957 163.366 37.0248C162.889 38.1122 164.645 38.684 165.12 37.6037C167.366 32.4868 167.594 26.7099 165.759 21.4316C163.924 16.1533 160.162 11.7639 155.226 9.1435C154.184 8.59146 153.152 10.1242 154.202 10.6804Z" fill="white"/>
<path d="M146.452 102.783C147.183 102.783 147.776 102.19 147.776 101.459C147.776 100.729 147.183 100.136 146.452 100.136C145.722 100.136 145.129 100.729 145.129 101.459C145.129 102.19 145.722 102.783 146.452 102.783Z" fill="#CCCCCC"/>
<path d="M143.632 155.862C145.076 155.862 146.246 154.691 146.246 153.248C146.246 151.804 145.076 150.634 143.632 150.634C142.189 150.634 141.018 151.804 141.018 153.248C141.018 154.691 142.189 155.862 143.632 155.862Z" fill="#CCCCCC"/>
<path d="M99.8725 145.797C100.707 145.797 101.383 145.121 101.383 144.286C101.383 143.452 100.707 142.776 99.8725 142.776C99.0384 142.776 98.3621 143.452 98.3621 144.286C98.3621 145.121 99.0384 145.797 99.8725 145.797Z" fill="#CCCCCC"/>
<path d="M122.819 121.065C123.722 121.065 124.454 120.333 124.454 119.429C124.454 118.526 123.722 117.794 122.819 117.794C121.915 117.794 121.183 118.526 121.183 119.429C121.183 120.333 121.915 121.065 122.819 121.065Z" fill="#CCCCCC"/>
<path d="M203.307 216.832C204.037 216.832 204.63 216.239 204.63 215.509C204.63 214.778 204.037 214.185 203.307 214.185C202.576 214.185 201.983 214.778 201.983 215.509C201.983 216.239 202.576 216.832 203.307 216.832Z" fill="#CCCCCC"/>
<path d="M159.973 189.624C161.417 189.624 162.587 188.454 162.587 187.01C162.587 185.566 161.417 184.396 159.973 184.396C158.53 184.396 157.359 185.566 157.359 187.01C157.359 188.454 158.53 189.624 159.973 189.624Z" fill="#CCCCCC"/>
<path d="M189.739 155.215C190.573 155.215 191.249 154.538 191.249 153.704C191.249 152.87 190.573 152.194 189.739 152.194C188.905 152.194 188.228 152.87 188.228 153.704C188.228 154.538 188.905 155.215 189.739 155.215Z" fill="#CCCCCC"/>
<path d="M199.671 187.678C200.575 187.678 201.307 186.946 201.307 186.042C201.307 185.139 200.575 184.406 199.671 184.406C198.768 184.406 198.036 185.139 198.036 186.042C198.036 186.946 198.768 187.678 199.671 187.678Z" fill="#CCCCCC"/>
<path d="M287.774 271.923C289.217 270.715 287.267 266.009 283.417 261.411C279.568 256.814 275.278 254.066 273.835 255.275C272.391 256.483 274.342 261.19 278.191 265.787C282.04 270.384 286.33 273.132 287.774 271.923Z" fill="#2F2E41"/>
<path d="M257.71 281.542C269.701 281.542 279.423 271.821 279.423 259.829C279.423 247.837 269.701 238.115 257.71 238.115C245.718 238.115 235.996 247.837 235.996 259.829C235.996 271.821 245.718 281.542 257.71 281.542Z" fill="#2F2E41"/>
<path d="M266.9 276.87H260.304V288.689H266.9V276.87Z" fill="#2F2E41"/>
<path d="M253.707 276.87H247.111V288.689H253.707V276.87Z" fill="#2F2E41"/>
<path d="M261.403 290.887C264.439 290.887 266.9 289.965 266.9 288.826C266.9 287.688 264.439 286.765 261.403 286.765C258.367 286.765 255.906 287.688 255.906 288.826C255.906 289.965 258.367 290.887 261.403 290.887Z" fill="#2F2E41"/>
<path d="M248.21 290.613C251.246 290.613 253.707 289.69 253.707 288.551C253.707 287.413 251.246 286.49 248.21 286.49C245.174 286.49 242.713 287.413 242.713 288.551C242.713 289.69 245.174 290.613 248.21 290.613Z" fill="#2F2E41"/>
<path d="M250.892 232.534C252.831 224.726 261.389 220.131 270.007 222.271C278.626 224.411 284.04 232.476 282.102 240.284C280.163 248.092 273.73 248.117 265.112 245.977C256.494 243.837 248.953 240.343 250.892 232.534Z" fill="#E6E6E6"/>
<path d="M243.062 254.406C243.869 252.705 240.131 249.244 234.714 246.674C229.296 244.105 224.251 243.4 223.444 245.101C222.637 246.802 226.375 250.264 231.793 252.833C237.21 255.403 242.256 256.107 243.062 254.406Z" fill="#2F2E41"/>
<path d="M254.463 262.486C258.462 262.486 261.703 259.245 261.703 255.247C261.703 251.249 258.462 248.008 254.463 248.008C250.465 248.008 247.224 251.249 247.224 255.247C247.224 259.245 250.465 262.486 254.463 262.486Z" fill="white"/>
<path d="M251.488 255.065C252.821 255.065 253.901 253.985 253.901 252.652C253.901 251.32 252.821 250.239 251.488 250.239C250.155 250.239 249.075 251.32 249.075 252.652C249.075 253.985 250.155 255.065 251.488 255.065Z" fill="#3F3D56"/>
<path d="M259.005 270.33C259.118 270.953 259.108 271.593 258.974 272.213C258.84 272.832 258.586 273.419 258.225 273.94C257.865 274.462 257.405 274.907 256.872 275.25C256.34 275.594 255.744 275.829 255.121 275.942C254.497 276.056 253.858 276.045 253.238 275.912C252.619 275.778 252.032 275.523 251.51 275.163C250.989 274.802 250.544 274.342 250.201 273.81C249.857 273.277 249.622 272.682 249.508 272.059L249.507 272.049C249.032 269.426 251.06 268.498 253.683 268.023C256.305 267.549 258.53 267.707 259.005 270.33Z" fill="white"/>
<path d="M79.1954 244.649C81.3361 239.048 81.6462 233.963 79.8879 233.291C78.1297 232.619 74.9689 236.614 72.8282 242.215C70.6875 247.816 70.3774 252.901 72.1357 253.573C73.8939 254.245 77.0547 250.25 79.1954 244.649Z" fill="#2F2E41"/>
<path d="M55.9423 281.542C67.9342 281.542 77.6555 271.821 77.6555 259.829C77.6555 247.837 67.9342 238.115 55.9423 238.115C43.9504 238.115 34.229 247.837 34.229 259.829C34.229 271.821 43.9504 281.542 55.9423 281.542Z" fill="#2F2E41"/>
<path d="M52.644 276.87H46.0476V288.689H52.644V276.87Z" fill="#2F2E41"/>
<path d="M65.8369 276.87H59.2405V288.689H65.8369V276.87Z" fill="#2F2E41"/>
<path d="M51.5446 290.887C54.5806 290.887 57.0417 289.965 57.0417 288.826C57.0417 287.688 54.5806 286.765 51.5446 286.765C48.5087 286.765 46.0476 287.688 46.0476 288.826C46.0476 289.965 48.5087 290.887 51.5446 290.887Z" fill="#2F2E41"/>
<path d="M64.7375 290.613C67.7734 290.613 70.2346 289.69 70.2346 288.551C70.2346 287.413 67.7734 286.49 64.7375 286.49C61.7016 286.49 59.2405 287.413 59.2405 288.551C59.2405 289.69 61.7016 290.613 64.7375 290.613Z" fill="#2F2E41"/>
<path d="M56.492 261.753C60.5905 261.753 63.9129 258.43 63.9129 254.332C63.9129 250.233 60.5905 246.911 56.492 246.911C52.3935 246.911 49.071 250.233 49.071 254.332C49.071 258.43 52.3935 261.753 56.492 261.753Z" fill="white"/>
<path d="M56.4919 256.805C57.8581 256.805 58.9656 255.698 58.9656 254.332C58.9656 252.966 57.8581 251.858 56.4919 251.858C55.1258 251.858 54.0182 252.966 54.0182 254.332C54.0182 255.698 55.1258 256.805 56.4919 256.805Z" fill="#3F3D56"/>
<path d="M34.8797 239.636C33.1264 231.784 38.7308 223.85 47.3975 221.915C56.0641 219.979 64.5111 224.776 66.2644 232.628C68.0176 240.48 62.2739 243.376 53.6073 245.311C44.9406 247.246 36.6329 247.488 34.8797 239.636Z" fill="#E6E6E6"/>
<path d="M41.2951 254.406C42.1018 252.705 38.3639 249.244 32.9464 246.674C27.5289 244.105 22.4832 243.4 21.6766 245.101C20.87 246.802 24.6078 250.264 30.0253 252.833C35.4428 255.403 40.4885 256.107 41.2951 254.406Z" fill="#2F2E41"/>
<path d="M45.2768 267.662C45.2768 269.787 50.7487 273.984 56.8206 273.984C62.8924 273.984 68.5854 268.001 68.5854 265.876C68.5854 263.751 62.8924 266.288 56.8206 266.288C50.7487 266.288 45.2768 265.537 45.2768 267.662Z" fill="white"/>
<path d="M159.66 260.871C171.652 260.871 181.373 251.15 181.373 239.158C181.373 227.166 171.652 217.444 159.66 217.444C147.668 217.444 137.946 227.166 137.946 239.158C137.946 251.15 147.668 260.871 159.66 260.871Z" fill="#2F2E41"/>
<path d="M156.361 256.199H149.765V268.017H156.361V256.199Z" fill="#2F2E41"/>
<path d="M169.554 256.199H162.958V268.017H169.554V256.199Z" fill="#2F2E41"/>
<path d="M155.262 270.216C158.298 270.216 160.759 269.293 160.759 268.155C160.759 267.016 158.298 266.093 155.262 266.093C152.226 266.093 149.765 267.016 149.765 268.155C149.765 269.293 152.226 270.216 155.262 270.216Z" fill="#2F2E41"/>
<path d="M168.455 269.941C171.491 269.941 173.952 269.018 173.952 267.88C173.952 266.741 171.491 265.819 168.455 265.819C165.419 265.819 162.958 266.741 162.958 267.88C162.958 269.018 165.419 269.941 168.455 269.941Z" fill="#2F2E41"/>
<path d="M138.597 218.965C136.844 211.113 142.448 203.179 151.115 201.243C159.782 199.308 168.229 204.105 169.982 211.957C171.735 219.809 165.991 222.705 157.325 224.64C148.658 226.575 140.35 226.817 138.597 218.965Z" fill="#382AEE"/>
<path d="M183.058 229.669C187.76 224.963 190.375 219.951 188.897 218.475C187.42 216.999 182.41 219.617 177.708 224.323C173.006 229.029 170.391 234.041 171.868 235.517C173.346 236.994 178.356 234.375 183.058 229.669Z" fill="#2F2E41"/>
<path d="M142.158 237.03C143.635 235.554 141.021 230.542 136.319 225.836C131.616 221.13 126.607 218.512 125.129 219.988C123.652 221.464 126.266 226.476 130.969 231.182C135.671 235.888 140.681 238.506 142.158 237.03Z" fill="#2F2E41"/>
<path d="M291.666 101.35C290.945 79.0858 275.696 61.5119 257.607 62.0976C217.347 63.2905 216.364 137.12 255.233 142.423L254.41 148.965L266.415 148.576L265.171 142.101C280.807 138.645 292.319 121.535 291.666 101.35Z" fill="#FF6584"/>
<path d="M237.586 113.694L233.051 113.841C231.273 105.389 230.992 96.6908 232.219 88.1415L236.754 87.9947C235.079 96.9439 235.357 105.51 237.586 113.694Z" fill="white"/>
<path d="M267.003 141.999L253.398 142.44L253.496 145.463L267.101 145.023L267.003 141.999Z" fill="#3F3D56"/>
<path d="M227.485 257.772L226.116 257.131L259.8 142.898L261.17 143.54L227.485 257.772Z" fill="#3F3D56"/>
<path d="M319.545 120.177C327.771 99.4759 320.805 77.2758 303.985 70.5919C266.596 55.6152 236.225 122.915 269.746 143.293L266.38 148.963L277.542 153.398L278.986 146.965C294.702 150.038 312.087 138.945 319.545 120.177Z" fill="#382AEE"/>
<path d="M265.034 109.908L260.817 108.233C262.561 99.7734 265.774 91.6857 270.312 84.3371L274.529 86.0128C269.421 93.5495 266.256 101.515 265.034 109.908Z" fill="white"/>
<path d="M268.057 142.576L266.94 145.387L279.59 150.414L280.707 147.603L268.057 142.576Z" fill="#3F3D56"/>
<path d="M227.219 254.765L225.905 254.017L272.933 146.694L274.247 147.441L227.219 254.765Z" fill="#3F3D56"/>
<path d="M63.9248 102.789C55.0247 82.368 34.3596 71.676 17.7681 78.9074C-19.1985 94.8988 7.18008 163.862 45.2564 154.42L46.9101 160.803L57.9207 156.004L54.3709 150.448C67.6219 141.456 71.9938 121.302 63.9248 102.789Z" fill="#382AEE"/>
<path d="M18.2396 134.25L14.08 136.063C9.30368 128.867 5.82656 120.889 3.80664 112.492L7.96626 110.679C9.71811 119.613 13.1426 127.47 18.2396 134.25Z" fill="white"/>
<path d="M56.0362 149.675L43.5573 155.114L44.7659 157.887L57.2448 152.449L56.0362 149.675Z" fill="#3F3D56"/>
<path d="M84.908 258.064C84.7133 258.112 84.5075 258.081 84.3357 257.978C84.1639 257.874 84.0403 257.707 83.992 257.512L51.1164 153.341L52.5843 152.977L85.4599 257.148C85.4838 257.244 85.4885 257.345 85.4737 257.443C85.4589 257.541 85.4249 257.635 85.3737 257.72C85.3224 257.805 85.2549 257.88 85.175 257.939C85.0951 257.998 85.0044 258.04 84.908 258.064Z" fill="#3F3D56"/>
<path d="M93.6943 291H14.5396C14.4059 291 14.2777 290.947 14.1831 290.852C14.0886 290.758 14.0355 290.63 14.0355 290.496C14.0355 290.362 14.0886 290.234 14.1831 290.139C14.2777 290.045 14.4059 289.992 14.5396 289.992H93.6943C93.828 289.992 93.9563 290.045 94.0508 290.139C94.1454 290.234 94.1985 290.362 94.1985 290.496C94.1985 290.63 94.1454 290.758 94.0508 290.852C93.9563 290.947 93.828 291 93.6943 291Z" fill="#CCCCCC"/>
<path d="M294.858 291H215.703C215.57 291 215.441 290.947 215.347 290.852C215.252 290.758 215.199 290.63 215.199 290.496C215.199 290.362 215.252 290.234 215.347 290.139C215.441 290.045 215.57 289.992 215.703 289.992H294.858C294.992 289.992 295.12 290.045 295.215 290.139C295.309 290.234 295.362 290.362 295.362 290.496C295.362 290.63 295.309 290.758 295.215 290.852C295.12 290.947 294.992 291 294.858 291Z" fill="#CCCCCC"/>
<path d="M200.578 270.329H121.424C121.29 270.329 121.162 270.276 121.067 270.181C120.973 270.087 120.919 269.958 120.919 269.825C120.919 269.691 120.973 269.563 121.067 269.468C121.162 269.374 121.29 269.32 121.424 269.32H200.578C200.712 269.32 200.84 269.374 200.935 269.468C201.029 269.563 201.082 269.691 201.082 269.825C201.082 269.958 201.029 270.087 200.935 270.181C200.84 270.276 200.712 270.329 200.578 270.329Z" fill="#CCCCCC"/>
<path d="M158.746 243.502C162.845 243.502 166.167 240.179 166.167 236.081C166.167 231.982 162.845 228.659 158.746 228.659C154.648 228.659 151.325 231.982 151.325 236.081C151.325 240.179 154.648 243.502 158.746 243.502Z" fill="white"/>
<path d="M158.746 238.554C160.112 238.554 161.22 237.447 161.22 236.081C161.22 234.714 160.112 233.607 158.746 233.607C157.38 233.607 156.272 234.714 156.272 236.081C156.272 237.447 157.38 238.554 158.746 238.554Z" fill="#3F3D56"/>
<path d="M164.637 249.805C164.866 251.065 164.586 252.364 163.858 253.416C163.129 254.469 162.013 255.189 160.753 255.418C159.494 255.647 158.195 255.367 157.143 254.638C156.09 253.91 155.37 252.793 155.141 251.534L155.139 251.525C154.664 248.902 156.692 247.974 159.315 247.499C161.938 247.024 164.162 247.183 164.637 249.805Z" fill="white"/>
</g>
<path d="M86.456 339.536V362H80.984V339.536H86.456ZM100.374 357.36V362H97.5895C95.6055 362 94.0588 361.52 92.9495 360.56C91.8402 359.579 91.2855 357.989 91.2855 355.792V348.688H89.1095V344.144H91.2855V339.792H96.7575V344.144H100.342V348.688H96.7575V355.856C96.7575 356.389 96.8855 356.773 97.1415 357.008C97.3975 357.243 97.8242 357.36 98.4215 357.36H100.374ZM104.67 339.536H110.27L106.686 348.112H103.006L104.67 339.536ZM120.748 362.256C119.191 362.256 117.804 361.989 116.588 361.456C115.372 360.923 114.412 360.197 113.708 359.28C113.004 358.341 112.609 357.296 112.524 356.144H117.932C117.996 356.763 118.284 357.264 118.796 357.648C119.308 358.032 119.937 358.224 120.684 358.224C121.367 358.224 121.889 358.096 122.252 357.84C122.636 357.563 122.828 357.211 122.828 356.784C122.828 356.272 122.561 355.899 122.028 355.664C121.495 355.408 120.631 355.131 119.436 354.832C118.156 354.533 117.089 354.224 116.236 353.904C115.383 353.563 114.647 353.04 114.028 352.336C113.409 351.611 113.1 350.64 113.1 349.424C113.1 348.4 113.377 347.472 113.932 346.64C114.508 345.787 115.34 345.115 116.428 344.624C117.537 344.133 118.849 343.888 120.364 343.888C122.604 343.888 124.364 344.443 125.644 345.552C126.945 346.661 127.692 348.133 127.884 349.968H122.828C122.743 349.349 122.465 348.859 121.996 348.496C121.548 348.133 120.951 347.952 120.204 347.952C119.564 347.952 119.073 348.08 118.732 348.336C118.391 348.571 118.22 348.901 118.22 349.328C118.22 349.84 118.487 350.224 119.02 350.48C119.575 350.736 120.428 350.992 121.58 351.248C122.903 351.589 123.98 351.931 124.812 352.272C125.644 352.592 126.369 353.125 126.988 353.872C127.628 354.597 127.959 355.579 127.98 356.816C127.98 357.861 127.681 358.8 127.084 359.632C126.508 360.443 125.665 361.083 124.556 361.552C123.468 362.021 122.199 362.256 120.748 362.256ZM143.581 343.92V348.464H150.909V352.688H143.581V357.616H151.869V362H138.109V339.536H151.869V343.92H143.581ZM178.206 343.952C180.424 343.952 182.184 344.624 183.486 345.968C184.808 347.312 185.47 349.179 185.47 351.568V362H180.03V352.304C180.03 351.152 179.72 350.267 179.102 349.648C178.504 349.008 177.672 348.688 176.606 348.688C175.539 348.688 174.696 349.008 174.078 349.648C173.48 350.267 173.182 351.152 173.182 352.304V362H167.742V352.304C167.742 351.152 167.432 350.267 166.814 349.648C166.216 349.008 165.384 348.688 164.318 348.688C163.251 348.688 162.408 349.008 161.79 349.648C161.192 350.267 160.894 351.152 160.894 352.304V362H155.422V344.144H160.894V346.384C161.448 345.637 162.174 345.051 163.07 344.624C163.966 344.176 164.979 343.952 166.11 343.952C167.454 343.952 168.648 344.24 169.694 344.816C170.76 345.392 171.592 346.213 172.19 347.28C172.808 346.299 173.651 345.499 174.718 344.88C175.784 344.261 176.947 343.952 178.206 343.952ZM194.769 346.672C195.302 345.84 196.038 345.168 196.977 344.656C197.915 344.144 199.014 343.888 200.273 343.888C201.745 343.888 203.078 344.261 204.273 345.008C205.467 345.755 206.406 346.821 207.089 348.208C207.793 349.595 208.145 351.205 208.145 353.04C208.145 354.875 207.793 356.496 207.089 357.904C206.406 359.291 205.467 360.368 204.273 361.136C203.078 361.883 201.745 362.256 200.273 362.256C199.035 362.256 197.937 362 196.977 361.488C196.038 360.976 195.302 360.315 194.769 359.504V370.512H189.297V344.144H194.769V346.672ZM202.577 353.04C202.577 351.675 202.193 350.608 201.425 349.84C200.678 349.051 199.75 348.656 198.641 348.656C197.553 348.656 196.625 349.051 195.857 349.84C195.11 350.629 194.737 351.707 194.737 353.072C194.737 354.437 195.11 355.515 195.857 356.304C196.625 357.093 197.553 357.488 198.641 357.488C199.729 357.488 200.657 357.093 201.425 356.304C202.193 355.493 202.577 354.405 202.577 353.04ZM220.967 357.36V362H218.183C216.199 362 214.653 361.52 213.543 360.56C212.434 359.579 211.879 357.989 211.879 355.792V348.688H209.703V344.144H211.879V339.792H217.351V344.144H220.935V348.688H217.351V355.856C217.351 356.389 217.479 356.773 217.735 357.008C217.991 357.243 218.418 357.36 219.015 357.36H220.967ZM242.255 344.144L231.055 370.48H225.167L229.263 361.392L221.999 344.144H228.111L232.239 355.312L236.335 344.144H242.255Z" fill="#110976"/>
<defs>
<clipPath id="clip0_60_1245">
<rect width="323" height="291" fill="white"/>
</clipPath>
</defs>
</svg>
