<svg width="350" height="362" viewBox="0 0 350 362" fill="none" xmlns="http://www.w3.org/2000/svg">
<path d="M317.681 338.133C310.991 345.296 303.325 351.48 294.909 356.505C294.716 356.623 294.52 356.735 294.323 356.85L280.699 344.792C280.842 344.659 281 344.51 281.171 344.346C291.323 334.706 341.719 267.312 345.077 250.9C344.845 252.267 348.107 305.886 317.681 338.133Z" fill="#F0F0F0"/>
<path d="M297.538 358.831C297.28 358.893 297.018 358.95 296.755 359.003L286.534 349.956C286.734 349.887 286.967 349.804 287.234 349.712C291.62 348.159 304.682 343.471 317.68 338.132C331.647 332.393 345.548 325.908 348.537 321.754C347.896 322.719 328.142 351.988 297.538 358.831Z" fill="#F0F0F0"/>
<path d="M317.492 159.76H316.037V119.885C316.037 116.855 315.44 113.854 314.28 111.054C313.12 108.254 311.42 105.71 309.277 103.567C307.134 101.424 304.59 99.7238 301.79 98.564C298.99 97.4042 295.989 96.8073 292.958 96.8073H208.476C205.445 96.8073 202.444 97.4042 199.644 98.564C196.844 99.7238 194.3 101.424 192.157 103.567C190.014 105.71 188.314 108.254 187.154 111.054C185.994 113.854 185.397 116.855 185.397 119.885V338.639C185.397 341.67 185.994 344.671 187.154 347.471C188.314 350.271 190.014 352.815 192.157 354.958C194.3 357.101 196.844 358.801 199.644 359.961C202.444 361.12 205.445 361.717 208.476 361.717H292.958C295.988 361.717 298.99 361.121 301.79 359.961C304.59 358.801 307.134 357.101 309.277 354.958C311.42 352.815 313.12 350.271 314.28 347.471C315.44 344.671 316.037 341.67 316.037 338.639V188.143H317.492V159.76Z" fill="#3F3D56"/>
<path d="M311.124 120.044V338.479C311.124 340.743 310.678 342.984 309.812 345.075C308.945 347.166 307.676 349.066 306.075 350.666C304.474 352.266 302.574 353.535 300.482 354.401C298.391 355.266 296.15 355.711 293.886 355.71H208.998C206.735 355.711 204.494 355.265 202.403 354.399C200.313 353.533 198.413 352.264 196.813 350.664C195.213 349.064 193.944 347.164 193.078 345.074C192.212 342.983 191.766 340.742 191.766 338.479V120.044C191.766 117.781 192.212 115.54 193.078 113.45C193.944 111.359 195.213 109.46 196.813 107.859C198.413 106.259 200.313 104.99 202.403 104.124C204.494 103.258 206.735 102.813 208.998 102.813H219.3C218.794 104.056 218.601 105.405 218.739 106.74C218.877 108.075 219.341 109.356 220.09 110.47C220.839 111.584 221.85 112.497 223.034 113.128C224.219 113.759 225.54 114.09 226.883 114.091H275.28C276.623 114.092 277.946 113.763 279.131 113.132C280.317 112.501 281.329 111.588 282.079 110.474C282.828 109.359 283.292 108.078 283.429 106.741C283.565 105.405 283.371 104.056 282.863 102.813H293.886C296.15 102.812 298.391 103.257 300.482 104.123C302.574 104.988 304.474 106.258 306.075 107.858C307.676 109.458 308.945 111.358 309.812 113.449C310.678 115.54 311.124 117.781 311.124 120.044Z" fill="white"/>
<path d="M284.718 233.555H210.104C208.797 233.553 207.544 233.033 206.62 232.109C205.696 231.185 205.176 229.932 205.174 228.626V226.172C205.176 224.865 205.696 223.612 206.62 222.688C207.544 221.764 208.797 221.244 210.104 221.243H284.718C286.025 221.244 287.278 221.764 288.202 222.688C289.126 223.612 289.646 224.865 289.648 226.172V228.626C289.646 229.932 289.126 231.185 288.202 232.109C287.278 233.033 286.025 233.553 284.718 233.555Z" fill="#F0F0F0"/>
<path d="M284.718 254.705H210.104C208.797 254.703 207.544 254.183 206.62 253.259C205.696 252.335 205.176 251.082 205.174 249.775V247.322C205.176 246.015 205.696 244.762 206.62 243.838C207.544 242.914 208.797 242.394 210.104 242.393H284.718C286.025 242.394 287.278 242.914 288.202 243.838C289.126 244.762 289.646 246.015 289.648 247.322V249.775C289.646 251.082 289.126 252.335 288.202 253.259C287.278 254.183 286.025 254.703 284.718 254.705Z" fill="#F0F0F0"/>
<path d="M288.451 228.825H213.836C212.464 228.823 211.148 228.277 210.178 227.307C209.208 226.337 208.662 225.021 208.66 223.649V221.195C208.662 219.823 209.208 218.508 210.178 217.537C211.148 216.567 212.464 216.021 213.836 216.02H288.451C289.823 216.021 291.138 216.567 292.109 217.537C293.079 218.508 293.625 219.823 293.626 221.195V223.649C293.625 225.021 293.079 226.337 292.109 227.307C291.138 228.277 289.823 228.823 288.451 228.825ZM213.836 217.005C212.725 217.007 211.66 217.449 210.875 218.234C210.089 219.019 209.648 220.084 209.646 221.195V223.649C209.648 224.76 210.089 225.825 210.875 226.61C211.66 227.396 212.725 227.837 213.836 227.839H288.451C289.562 227.837 290.627 227.396 291.412 226.61C292.198 225.825 292.639 224.76 292.641 223.649V221.195C292.639 220.084 292.198 219.019 291.412 218.234C290.627 217.449 289.562 217.007 288.451 217.005H213.836Z" fill="#3F3D56"/>
<path d="M288.451 249.975H213.836C212.464 249.973 211.148 249.427 210.178 248.457C209.208 247.487 208.662 246.171 208.66 244.799V242.345C208.662 240.973 209.208 239.658 210.178 238.687C211.148 237.717 212.464 237.171 213.836 237.17H288.451C289.823 237.171 291.138 237.717 292.109 238.687C293.079 239.658 293.625 240.973 293.626 242.345V244.799C293.625 246.171 293.079 247.487 292.109 248.457C291.138 249.427 289.823 249.973 288.451 249.975ZM213.836 238.155C212.725 238.157 211.66 238.598 210.875 239.384C210.089 240.169 209.648 241.234 209.646 242.345V244.799C209.648 245.91 210.089 246.975 210.875 247.76C211.66 248.546 212.725 248.987 213.836 248.989H288.451C289.562 248.987 290.627 248.546 291.412 247.76C292.198 246.975 292.639 245.91 292.641 244.799V242.345C292.639 241.234 292.198 240.169 291.412 239.384C290.627 238.598 289.562 238.157 288.451 238.155H213.836Z" fill="#3F3D56"/>
<path d="M311.124 120.044V167.557C303.574 169.543 295.669 169.771 288.018 168.223C280.366 166.675 273.171 163.392 266.987 158.628C260.803 153.863 255.795 147.743 252.347 140.739C248.899 133.736 247.104 126.034 247.1 118.228C247.1 116.834 247.156 115.455 247.268 114.091H275.28C276.623 114.092 277.946 113.763 279.131 113.132C280.317 112.501 281.329 111.588 282.079 110.474C282.828 109.359 283.292 108.078 283.428 106.741C283.565 105.405 283.371 104.056 282.863 102.813H293.886C296.15 102.812 298.391 103.257 300.482 104.123C302.574 104.988 304.474 106.258 306.075 107.858C307.676 109.458 308.945 111.358 309.812 113.449C310.678 115.54 311.124 117.781 311.124 120.044Z" fill="#F0F0F0"/>
<path d="M234.659 352.743C234.659 353.745 234.621 354.734 234.54 355.71H208.998C206.735 355.711 204.494 355.265 202.403 354.399C200.313 353.533 198.413 352.264 196.813 350.664C195.213 349.064 193.944 347.164 193.078 345.074C192.212 342.983 191.766 340.742 191.766 338.479V315.115C197.12 314.419 202.561 314.871 207.727 316.443C212.892 318.015 217.663 320.67 221.721 324.23C225.78 327.791 229.033 332.175 231.264 337.092C233.495 342.009 234.652 347.344 234.658 352.743H234.659Z" fill="#382AEE"/>
<path d="M28.6502 311.747C29.3679 312.063 30.1815 312.081 30.9126 311.797C31.6436 311.514 32.2324 310.952 32.5498 310.235L55.5598 258.087C56.0865 256.894 56.2474 255.571 56.0222 254.286C55.7971 253.001 55.1959 251.812 54.2949 250.869C53.3938 249.926 52.2332 249.271 50.96 248.987C49.6867 248.704 48.358 248.804 47.1417 249.276H47.1417C45.7365 249.812 44.5607 250.819 43.8143 252.125C43.6955 252.331 43.5879 252.544 43.4917 252.762L20.4817 304.91C20.3249 305.266 20.2396 305.649 20.2307 306.037C20.2218 306.425 20.2895 306.811 20.4299 307.174C20.5703 307.536 20.7807 307.867 21.049 308.147C21.3173 308.428 21.6383 308.654 21.9937 308.81L28.6502 311.747Z" fill="#382AEE"/>
<path d="M54.6152 279.496L31.8554 274.438L37.4887 259.536C38.4484 255.894 40.6817 252.716 43.7837 250.58C46.8856 248.443 50.6507 247.488 54.396 247.89L54.6152 247.914L54.6152 279.496Z" fill="#2F2E41"/>
<path d="M100.586 312.493C99.917 312.492 99.2623 312.297 98.7014 311.931C98.1404 311.566 97.6974 311.046 97.4258 310.434L74.4159 258.286C73.6841 256.627 73.6161 254.75 74.2258 253.042C74.8355 251.334 76.0766 249.925 77.6937 249.104C79.3109 248.284 81.181 248.114 82.9195 248.63C84.658 249.146 86.1325 250.309 87.0397 251.879V251.879C87.1672 252.101 87.2829 252.329 87.3861 252.563L110.396 304.712C110.765 305.549 110.787 306.499 110.456 307.352C110.125 308.205 109.469 308.892 108.632 309.261L101.75 312.298L101.746 312.29C101.374 312.424 100.982 312.493 100.586 312.493Z" fill="#382AEE"/>
<path d="M68.7577 294.586C67.9735 294.586 67.2218 294.898 66.6673 295.453C66.1128 296.007 65.8009 296.759 65.8 297.543V358.18C65.8009 358.964 66.1128 359.715 66.6673 360.27C67.2218 360.824 67.9735 361.136 68.7577 361.137H76.0332C76.8173 361.136 77.5691 360.824 78.1236 360.27C78.6781 359.715 78.99 358.964 78.9908 358.18V297.543C78.99 296.759 78.6781 296.007 78.1236 295.453C77.5691 294.898 76.8173 294.586 76.0332 294.586H68.7577Z" fill="#382AEE"/>
<path d="M54.3677 294.586C53.5835 294.586 52.8317 294.898 52.2773 295.453C51.7228 296.007 51.4109 296.759 51.41 297.543V358.18C51.4109 358.964 51.7228 359.715 52.2773 360.27C52.8317 360.824 53.5835 361.136 54.3677 361.137H61.6433C62.4274 361.136 63.1792 360.824 63.7337 360.27C64.2882 359.715 64.6 358.964 64.6009 358.18V297.543C64.6 296.759 64.2882 296.007 63.7337 295.453C63.1792 294.898 62.4274 294.586 61.6433 294.586H54.3677Z" fill="#382AEE"/>
<path d="M64.9831 231.058C78.8674 231.058 90.1229 219.803 90.1229 205.919C90.1229 192.035 78.8674 180.78 64.9831 180.78C51.0987 180.78 39.8433 192.035 39.8433 205.919C39.8433 219.803 51.0987 231.058 64.9831 231.058Z" fill="#382AEE"/>
<path d="M73.3491 216.472C74.9787 216.427 77.0069 216.37 78.5693 215.229C79.0346 214.875 79.4169 214.424 79.6894 213.907C79.9619 213.39 80.118 212.819 80.1468 212.236C80.175 211.821 80.107 211.405 79.9479 211.021C79.7888 210.636 79.543 210.294 79.2297 210.021C78.4137 209.331 77.222 209.169 75.9378 209.547L77.2683 199.824L76.2916 199.69L74.7274 211.121L75.5431 210.746C76.4887 210.313 77.7867 210.092 78.5934 210.774C78.7914 210.952 78.9457 211.173 79.0443 211.421C79.1428 211.668 79.183 211.935 79.1616 212.201C79.1377 212.635 79.0204 213.06 78.8179 213.445C78.6153 213.83 78.3322 214.167 77.9878 214.433C76.7719 215.321 75.1553 215.435 73.3217 215.487L73.3491 216.472Z" fill="#2F2E41"/>
<path d="M87.4084 200.662H82.0987V201.648H87.4084V200.662Z" fill="#2F2E41"/>
<path d="M70.6485 200.662H65.3388V201.648H70.6485V200.662Z" fill="#2F2E41"/>
<path d="M89.893 312.799L80.8446 246.747C80.7476 246.039 80.3973 245.39 79.8585 244.92C79.3198 244.45 78.6291 244.191 77.9142 244.191H71.0843C71.1128 244.029 71.1276 243.864 71.1286 243.698V241.234C71.1286 240.449 70.817 239.697 70.2623 239.143C69.7077 238.588 68.9554 238.276 68.171 238.276H62.2557C61.4713 238.276 60.7191 238.588 60.1644 239.143C59.6097 239.697 59.2981 240.449 59.2981 241.234V243.698C59.2991 243.864 59.314 244.029 59.3424 244.191H52.5125C51.7976 244.191 51.1069 244.45 50.5682 244.92C50.0295 245.39 49.6792 246.039 49.5821 246.747L40.5337 312.799C40.4764 313.218 40.5094 313.643 40.6304 314.048C40.7513 314.453 40.9576 314.827 41.2352 315.145C41.5128 315.463 41.8553 315.718 42.2398 315.893C42.6242 316.068 43.0416 316.158 43.4639 316.158H86.9628C87.3851 316.158 87.8025 316.068 88.1869 315.893C88.5714 315.718 88.9139 315.463 89.1915 315.145C89.4691 314.827 89.6754 314.453 89.7964 314.048C89.9174 313.643 89.9503 313.218 89.893 312.799Z" fill="#2F2E41"/>
<path d="M75.8115 279.496V247.914L76.0308 247.89C79.7807 247.489 83.5499 248.446 86.6539 250.588C89.7578 252.73 91.9904 255.914 92.9462 259.562L98.5713 274.439L75.8115 279.496Z" fill="#2F2E41"/>
<path d="M63.7171 231.843L46.3285 225.094C43.4851 223.99 40.6258 222.92 37.7975 221.778C36.586 221.356 35.4699 220.698 34.5138 219.843C33.6813 218.962 33.1139 217.864 32.8767 216.675C32.2736 214.126 32.3826 211.339 32.4256 208.738C32.459 205.892 32.6932 203.052 33.1265 200.239C33.8858 194.954 35.6691 189.867 38.3764 185.264C43.2529 177.263 51.6547 171.244 61.3191 171.724C65.7934 171.947 70.2934 173.552 73.6176 176.611C73.9644 177.025 74.3535 177.402 74.7785 177.736C75.074 177.847 75.3955 177.868 75.7031 177.798C76.1088 177.772 76.5148 177.752 76.9211 177.738C78.331 177.679 79.7434 177.738 81.1434 177.915C83.6946 178.191 86.1127 179.195 88.1088 180.808C89.77 182.237 91.1218 184.254 91.2608 186.496C91.328 187.525 91.1578 188.556 90.7635 189.509C90.3691 190.462 89.7611 191.311 88.9863 191.992C86.9118 193.741 83.9519 193.126 81.4634 192.994L72.3471 192.511L67.7282 192.267C66.7771 192.216 66.7799 193.695 67.7282 193.745L80.0048 194.396C81.9776 194.5 84.0109 194.756 85.9853 194.638C87.5024 194.569 88.951 193.987 90.0931 192.986C91.1361 192.028 91.913 190.816 92.3481 189.468C92.7832 188.12 92.8617 186.683 92.5758 185.295C91.9429 182.27 89.6912 179.767 87.0516 178.279C83.46 176.253 79.1705 176.059 75.1517 176.358L75.6746 176.575C71.1286 171.696 64.1652 169.636 57.628 170.357C50.7257 171.118 44.5868 174.968 40.176 180.234C35.2582 186.104 32.5783 193.424 31.5365 200.951C30.9943 205.015 30.8158 209.119 31.0031 213.215C30.9954 215.021 31.3044 216.815 31.9162 218.514C32.6141 220.168 33.8761 221.521 35.4777 222.333C37.3139 223.219 39.2016 223.994 41.1306 224.655L47.537 227.141L60.1208 232.025L63.324 233.269C64.2117 233.613 64.5963 232.184 63.7171 231.843Z" fill="#2F2E41"/>
<path d="M36.3765 181.59C34.8653 181.59 33.3881 181.142 32.1316 180.302C30.8752 179.463 29.8959 178.27 29.3176 176.874C28.7393 175.478 28.588 173.941 28.8828 172.459C29.1776 170.977 29.9053 169.616 30.9738 168.547C32.0424 167.479 33.4038 166.751 34.8859 166.456C36.368 166.161 37.9043 166.313 39.3004 166.891C40.6965 167.469 41.8898 168.449 42.7294 169.705C43.5689 170.961 44.017 172.439 44.017 173.95C44.0148 175.975 43.209 177.917 41.7767 179.35C40.3443 180.782 38.4022 181.588 36.3765 181.59ZM36.3765 167.788C35.1578 167.788 33.9665 168.15 32.9532 168.827C31.9399 169.504 31.1502 170.466 30.6838 171.592C30.2174 172.718 30.0954 173.957 30.3332 175.152C30.5709 176.347 31.1578 177.445 32.0195 178.307C32.8812 179.168 33.9792 179.755 35.1744 179.993C36.3697 180.231 37.6086 180.109 38.7345 179.642C39.8604 179.176 40.8227 178.386 41.4998 177.373C42.1768 176.36 42.5382 175.168 42.5382 173.95C42.5364 172.316 41.8866 170.75 40.7315 169.595C39.5763 168.44 38.0101 167.79 36.3765 167.788Z" fill="#2F2E41"/>
<path d="M164.099 228.938L147.561 216.29L134.913 232.827L151.45 245.475L164.099 228.938Z" fill="#F0F0F0"/>
<path d="M70.6357 116.031C73.2486 116.029 75.8258 116.639 78.1607 117.812C80.4956 118.985 82.5234 120.688 84.0817 122.785L93.7383 110.16L64.764 88L42.6037 116.974L55.0915 126.524C56.3412 123.425 58.4888 120.77 61.2586 118.9C64.0284 117.031 67.2939 116.031 70.6357 116.031Z" fill="#F0F0F0"/>
<path d="M348.507 362H0.492938C0.362203 362 0.236822 361.948 0.144378 361.856C0.051934 361.763 0 361.638 0 361.507C0 361.376 0.051934 361.251 0.144378 361.159C0.236822 361.066 0.362203 361.014 0.492938 361.014H348.507C348.638 361.014 348.763 361.066 348.856 361.159C348.948 361.251 349 361.376 349 361.507C349 361.638 348.948 361.763 348.856 361.856C348.763 361.948 348.638 362 348.507 362Z" fill="#3F3D56"/>
<path d="M263.568 280.209H228.144C226.837 280.207 225.584 279.688 224.66 278.764C223.736 277.839 223.216 276.587 223.215 275.28V272.826C223.216 271.519 223.736 270.266 224.66 269.342C225.584 268.418 226.837 267.898 228.144 267.897H263.568C264.875 267.898 266.128 268.418 267.052 269.342C267.976 270.266 268.496 271.519 268.497 272.826V275.28C268.496 276.587 267.976 277.839 267.052 278.764C266.128 279.688 264.875 280.207 263.568 280.209Z" fill="#382AEE"/>
<path d="M267.3 275.479H231.877C230.504 275.477 229.189 274.932 228.218 273.961C227.248 272.991 226.702 271.675 226.701 270.303V267.85C226.702 266.478 227.248 265.162 228.218 264.192C229.189 263.221 230.504 262.676 231.877 262.674H267.3C268.672 262.676 269.988 263.221 270.958 264.192C271.929 265.162 272.474 266.478 272.476 267.85V270.303C272.474 271.675 271.929 272.991 270.958 273.961C269.988 274.932 268.672 275.477 267.3 275.479ZM231.877 263.66C230.766 263.661 229.701 264.103 228.915 264.888C228.13 265.674 227.688 266.739 227.687 267.85V270.303C227.688 271.414 228.13 272.479 228.915 273.265C229.701 274.05 230.766 274.492 231.877 274.493H267.3C268.411 274.492 269.476 274.05 270.262 273.265C271.047 272.479 271.489 271.414 271.49 270.303V267.85C271.489 266.739 271.047 265.674 270.262 264.888C269.476 264.103 268.411 263.661 267.3 263.66H231.877Z" fill="#3F3D56"/>
<rect x="220" y="27.3847" width="106.106" height="106.106" rx="19" transform="rotate(-14.9567 220 27.3847)" fill="#382AEE"/>
<g clip-path="url(#clip0_60_837)">
<path d="M306.096 34.7367C304.527 35.4539 305.211 34.3637 292.003 57.1676L279.798 78.2539L270.145 72.6928C261.208 67.5359 260.434 67.1199 259.616 66.9997C257.032 66.6065 254.527 68.1293 253.706 70.5835C253.354 71.5986 253.34 72.5098 253.648 73.6603C253.945 74.7728 254.412 75.5556 255.146 76.2263C255.433 76.4883 261.131 79.869 267.808 83.7196C281.07 91.3778 280.494 91.0982 282.364 90.8967C283.473 90.7899 284.415 90.3621 285.38 89.5625C286.066 88.9864 286.878 87.6179 299.793 65.2854C312.939 42.5523 313.479 41.5819 313.657 40.6267C313.826 39.6876 313.818 39.5544 313.466 38.2396C313.122 36.9501 313.052 36.7925 312.483 36.1319C310.92 34.2875 308.33 33.7198 306.096 34.7367Z" fill="white"/>
</g>
<path d="M9.32 41.72H18.28V47H2.48V18.92H9.32V41.72ZM31.7025 47.32C29.5158 47.32 27.5425 46.8533 25.7825 45.92C24.0492 44.9867 22.6758 43.6533 21.6625 41.92C20.6758 40.1867 20.1825 38.16 20.1825 35.84C20.1825 33.5467 20.6892 31.5333 21.7025 29.8C22.7158 28.04 24.1025 26.6933 25.8625 25.76C27.6225 24.8267 29.5958 24.36 31.7825 24.36C33.9692 24.36 35.9425 24.8267 37.7025 25.76C39.4625 26.6933 40.8492 28.04 41.8625 29.8C42.8758 31.5333 43.3825 33.5467 43.3825 35.84C43.3825 38.1333 42.8625 40.16 41.8225 41.92C40.8092 43.6533 39.4092 44.9867 37.6225 45.92C35.8625 46.8533 33.8892 47.32 31.7025 47.32ZM31.7025 41.4C33.0092 41.4 34.1158 40.92 35.0225 39.96C35.9558 39 36.4225 37.6267 36.4225 35.84C36.4225 34.0533 35.9692 32.68 35.0625 31.72C34.1825 30.76 33.0892 30.28 31.7825 30.28C30.4492 30.28 29.3425 30.76 28.4625 31.72C27.5825 32.6533 27.1425 34.0267 27.1425 35.84C27.1425 37.6267 27.5692 39 28.4225 39.96C29.3025 40.92 30.3958 41.4 31.7025 41.4ZM55.4913 24.36C57.0646 24.36 58.4379 24.68 59.6113 25.32C60.8113 25.96 61.7313 26.8 62.3713 27.84V24.68H69.2113V46.96C69.2113 49.0133 68.7979 50.8667 67.9713 52.52C67.1713 54.2 65.9313 55.5333 64.2513 56.52C62.5979 57.5067 60.5313 58 58.0513 58C54.7446 58 52.0646 57.2133 50.0113 55.64C47.9579 54.0933 46.7846 51.9867 46.4913 49.32H53.2513C53.4646 50.1733 53.9713 50.84 54.7713 51.32C55.5713 51.8267 56.5579 52.08 57.7313 52.08C59.1446 52.08 60.2646 51.6667 61.0913 50.84C61.9446 50.04 62.3713 48.7467 62.3713 46.96V43.8C61.7046 44.84 60.7846 45.6933 59.6113 46.36C58.4379 47 57.0646 47.32 55.4913 47.32C53.6513 47.32 51.9846 46.8533 50.4913 45.92C48.9979 44.96 47.8113 43.6133 46.9313 41.88C46.0779 40.12 45.6513 38.0933 45.6513 35.8C45.6513 33.5067 46.0779 31.4933 46.9313 29.76C47.8113 28.0267 48.9979 26.6933 50.4913 25.76C51.9846 24.8267 53.6513 24.36 55.4913 24.36ZM62.3713 35.84C62.3713 34.1333 61.8913 32.7867 60.9313 31.8C59.9979 30.8133 58.8513 30.32 57.4913 30.32C56.1313 30.32 54.9713 30.8133 54.0113 31.8C53.0779 32.76 52.6113 34.0933 52.6113 35.8C52.6113 37.5067 53.0779 38.8667 54.0113 39.88C54.9713 40.8667 56.1313 41.36 57.4913 41.36C58.8513 41.36 59.9979 40.8667 60.9313 39.88C61.8913 38.8933 62.3713 37.5467 62.3713 35.84ZM89.4763 18.92V47H82.6363V18.92H89.4763ZM108.033 24.44C110.646 24.44 112.726 25.2933 114.273 27C115.846 28.68 116.633 31 116.633 33.96V47H109.833V34.88C109.833 33.3867 109.446 32.2267 108.673 31.4C107.9 30.5733 106.86 30.16 105.553 30.16C104.246 30.16 103.206 30.5733 102.433 31.4C101.66 32.2267 101.273 33.3867 101.273 34.88V47H94.4331V24.68H101.273V27.64C101.966 26.6533 102.9 25.88 104.073 25.32C105.246 24.7333 106.566 24.44 108.033 24.44Z" fill="#382AEE"/>
<defs>
<clipPath id="clip0_60_837">
<rect width="67" height="67" fill="white" transform="translate(245 41.2957) rotate(-14.96)"/>
</clipPath>
</defs>
</svg>
