<svg width="76" height="30" viewBox="0 0 76 30" fill="none" xmlns="http://www.w3.org/2000/svg">
<path fill-rule="evenodd" clip-rule="evenodd" d="M2.9703 0C1.32985 0 0 1.32985 0 2.9703V27.0297C0 28.6702 1.32985 30 2.9703 30H15C23.2843 30 30 23.2843 30 15C30 6.71573 23.2843 0 15 0H2.9703ZM14.842 22.4176C18.8533 22.4176 22.1052 19.0228 22.1052 14.8352C22.1052 10.6475 18.8533 7.25275 14.842 7.25275C10.8307 7.25275 7.57886 10.6475 7.57886 14.8352C7.57886 19.0228 10.8307 22.4176 14.842 22.4176Z" fill="#382AEE"/>
<path d="M44.4186 19.68V22H43.0266C42.0346 22 41.2612 21.76 40.7066 21.28C40.1519 20.7893 39.8746 19.9947 39.8746 18.896V15.344H38.7866V13.072H39.8746V10.896H42.6106V13.072H44.4026V15.344H42.6106V18.928C42.6106 19.1947 42.6746 19.3867 42.8026 19.504C42.9306 19.6213 43.1439 19.68 43.4426 19.68H44.4186ZM50.0066 22.128C49.1319 22.128 48.3426 21.9413 47.6386 21.568C46.9452 21.1947 46.3959 20.6613 45.9906 19.968C45.5959 19.2747 45.3986 18.464 45.3986 17.536C45.3986 16.6187 45.6012 15.8133 46.0066 15.12C46.4119 14.416 46.9666 13.8773 47.6706 13.504C48.3746 13.1307 49.1639 12.944 50.0386 12.944C50.9132 12.944 51.7026 13.1307 52.4066 13.504C53.1106 13.8773 53.6652 14.416 54.0706 15.12C54.4759 15.8133 54.6786 16.6187 54.6786 17.536C54.6786 18.4533 54.4706 19.264 54.0546 19.968C53.6492 20.6613 53.0892 21.1947 52.3746 21.568C51.6706 21.9413 50.8812 22.128 50.0066 22.128ZM50.0066 19.76C50.5292 19.76 50.9719 19.568 51.3346 19.184C51.7079 18.8 51.8946 18.2507 51.8946 17.536C51.8946 16.8213 51.7132 16.272 51.3506 15.888C50.9986 15.504 50.5612 15.312 50.0386 15.312C49.5052 15.312 49.0626 15.504 48.7106 15.888C48.3586 16.2613 48.1826 16.8107 48.1826 17.536C48.1826 18.2507 48.3532 18.8 48.6946 19.184C49.0466 19.568 49.4839 19.76 50.0066 19.76ZM55.5861 17.52C55.5861 16.6027 55.7567 15.7973 56.0981 15.104C56.4501 14.4107 56.9247 13.8773 57.5221 13.504C58.1194 13.1307 58.7861 12.944 59.5221 12.944C60.1087 12.944 60.6421 13.0667 61.1221 13.312C61.6127 13.5573 61.9967 13.888 62.2741 14.304V10.16H65.0101V22H62.2741V20.72C62.0181 21.1467 61.6501 21.488 61.1701 21.744C60.7007 22 60.1514 22.128 59.5221 22.128C58.7861 22.128 58.1194 21.9413 57.5221 21.568C56.9247 21.184 56.4501 20.6453 56.0981 19.952C55.7567 19.248 55.5861 18.4373 55.5861 17.52ZM62.2741 17.536C62.2741 16.8533 62.0821 16.3147 61.6981 15.92C61.3247 15.5253 60.8661 15.328 60.3221 15.328C59.7781 15.328 59.3141 15.5253 58.9301 15.92C58.5567 16.304 58.3701 16.8373 58.3701 17.52C58.3701 18.2027 58.5567 18.7467 58.9301 19.152C59.3141 19.5467 59.7781 19.744 60.3221 19.744C60.8661 19.744 61.3247 19.5467 61.6981 19.152C62.0821 18.7573 62.2741 18.2187 62.2741 17.536ZM71.0534 22.128C70.1788 22.128 69.3894 21.9413 68.6854 21.568C67.9921 21.1947 67.4428 20.6613 67.0374 19.968C66.6428 19.2747 66.4454 18.464 66.4454 17.536C66.4454 16.6187 66.6481 15.8133 67.0534 15.12C67.4588 14.416 68.0134 13.8773 68.7174 13.504C69.4214 13.1307 70.2108 12.944 71.0854 12.944C71.9601 12.944 72.7494 13.1307 73.4534 13.504C74.1574 13.8773 74.7121 14.416 75.1174 15.12C75.5228 15.8133 75.7254 16.6187 75.7254 17.536C75.7254 18.4533 75.5174 19.264 75.1014 19.968C74.6961 20.6613 74.1361 21.1947 73.4214 21.568C72.7174 21.9413 71.9281 22.128 71.0534 22.128ZM71.0534 19.76C71.5761 19.76 72.0188 19.568 72.3814 19.184C72.7548 18.8 72.9414 18.2507 72.9414 17.536C72.9414 16.8213 72.7601 16.272 72.3974 15.888C72.0454 15.504 71.6081 15.312 71.0854 15.312C70.5521 15.312 70.1094 15.504 69.7574 15.888C69.4054 16.2613 69.2294 16.8107 69.2294 17.536C69.2294 18.2507 69.4001 18.8 69.7414 19.184C70.0934 19.568 70.5308 19.76 71.0534 19.76Z" fill="black"/>
</svg>
