<svg width="14" height="9" viewBox="0 0 14 9" fill="none" xmlns="http://www.w3.org/2000/svg">
<path d="M0.426866 7.54051C0.256716 7.60985 0.173134 7.68611 0.080597 7.84558C0.00895522 7.97038 0 8.02239 0 8.25812C0 8.50079 0.00895522 8.53893 0.0895522 8.6776C0.140299 8.75733 0.241791 8.8648 0.313433 8.91333L0.447761 9H7H13.5522L13.6866 8.91333C13.7582 8.8648 13.8597 8.75733 13.9104 8.6776C13.991 8.53893 14 8.50079 14 8.25466C14 8.00852 13.991 7.97038 13.9104 7.83172C13.8597 7.75198 13.7582 7.64451 13.6866 7.59598L13.5522 7.50931L7.04478 7.50238C1.66866 7.49544 0.516418 7.50238 0.426866 7.54051Z" fill="#887FF5"/>
<path d="M0.426866 0.040512C0.256716 0.109846 0.173134 0.186114 0.080597 0.345583C0.00895522 0.470385 0 0.522386 0 0.758122C0 1.00079 0.00895522 1.03893 0.0895522 1.1776C0.140299 1.25733 0.241791 1.3648 0.313433 1.41333L0.447761 1.5H7H13.5522L13.6866 1.41333C13.7582 1.3648 13.8597 1.25733 13.9104 1.1776C13.991 1.03893 14 1.00079 14 0.754656C14 0.508519 13.991 0.470385 13.9104 0.331716C13.8597 0.251982 13.7582 0.144513 13.6866 0.0959794L13.5522 0.0093115L7.04478 0.00237807C1.66866 -0.00455537 0.516418 0.00237807 0.426866 0.040512Z" fill="#887FF5"/>
</svg>
