<svg width="16" height="16" viewBox="0 0 16 16" fill="none" xmlns="http://www.w3.org/2000/svg">
<path d="M12.6667 9.05734V6.66667C12.6667 4.522 11.21 2.71534 9.23667 2.172C9.04133 1.68 8.564 1.33334 8 1.33334C7.436 1.33334 6.95867 1.68 6.76333 2.172C4.79 2.716 3.33333 4.522 3.33333 6.66667V9.05734L2.19533 10.1953C2.13331 10.2571 2.08411 10.3306 2.05059 10.4115C2.01707 10.4924 1.99987 10.5791 2 10.6667V12C2 12.1768 2.07024 12.3464 2.19526 12.4714C2.32029 12.5964 2.48986 12.6667 2.66667 12.6667H13.3333C13.5101 12.6667 13.6797 12.5964 13.8047 12.4714C13.9298 12.3464 14 12.1768 14 12V10.6667C14.0001 10.5791 13.9829 10.4924 13.9494 10.4115C13.9159 10.3306 13.8667 10.2571 13.8047 10.1953L12.6667 9.05734ZM12.6667 11.3333H3.33333V10.9427L4.47133 9.80467C4.53336 9.74287 4.58255 9.66941 4.61608 9.58851C4.6496 9.50762 4.66679 9.4209 4.66667 9.33334V6.66667C4.66667 4.82867 6.162 3.33334 8 3.33334C9.838 3.33334 11.3333 4.82867 11.3333 6.66667V9.33334C11.3333 9.51067 11.4033 9.68 11.5287 9.80467L12.6667 10.9427V11.3333ZM8 14.6667C8.41287 14.6672 8.81564 14.5391 9.15233 14.3001C9.48902 14.0612 9.74289 13.7232 9.87867 13.3333H6.12133C6.25711 13.7232 6.51099 14.0612 6.84767 14.3001C7.18436 14.5391 7.58713 14.6672 8 14.6667V14.6667Z" fill="#887FF5"/>
</svg>
