<svg width="16" height="16" viewBox="0 0 16 16" fill="none" xmlns="http://www.w3.org/2000/svg">
<path d="M6.66668 12C7.84999 11.9998 8.99921 11.6036 9.93134 10.8747L12.862 13.8053L13.8047 12.8627L10.874 9.932C11.6033 8.99978 11.9997 7.85029 12 6.66667C12 3.726 9.60734 1.33334 6.66668 1.33334C3.72601 1.33334 1.33334 3.726 1.33334 6.66667C1.33334 9.60734 3.72601 12 6.66668 12ZM6.66668 2.66667C8.87268 2.66667 10.6667 4.46067 10.6667 6.66667C10.6667 8.87267 8.87268 10.6667 6.66668 10.6667C4.46068 10.6667 2.66668 8.87267 2.66668 6.66667C2.66668 4.46067 4.46068 2.66667 6.66668 2.66667Z" fill="#887FF5"/>
</svg>
