<svg width="350" height="244" viewBox="0 0 350 244" fill="none" xmlns="http://www.w3.org/2000/svg">
<g clip-path="url(#clip0_60_1158)">
<path d="M345.479 34H314.154V65.2606H345.479V34Z" fill="#F1F1F1"/>
<path d="M100.325 155.645H69V186.905H100.325V155.645Z" fill="#F1F1F1"/>
<path d="M86.582 173.207H334.239V48.0903H86.582V173.207Z" fill="white"/>
<path d="M336.282 175.245H84.5389V46.0515H336.282V175.245ZM88.6248 171.168H332.196V50.129H88.6248V171.168Z" fill="#E5E5E5"/>
<path d="M301.853 68.0032H121.309C118.548 68.0032 116.309 70.2418 116.309 73.0032V82.4335C116.309 85.195 118.548 87.4335 121.309 87.4335H301.853C304.614 87.4335 306.853 85.195 306.853 82.4335V73.0032C306.853 70.2417 304.614 68.0032 301.853 68.0032Z" fill="#E5E5E5"/>
<circle cx="132" cy="78" r="5.75" stroke="#66C6FF" stroke-width="0.5"/>
<line x1="142" y1="78" x2="253" y2="78" stroke="#959595" stroke-width="2" stroke-linecap="round"/>
<path d="M312.953 142.486H300.284C297.523 142.486 295.284 144.725 295.284 147.486V160.155C295.284 162.916 297.523 165.155 300.284 165.155H312.953C315.715 165.155 317.953 162.916 317.953 160.155V147.486C317.953 144.725 315.715 142.486 312.953 142.486Z" fill="#382AEE"/>
<path d="M306.815 157.963C306.77 157.939 306.715 157.898 306.695 157.87C306.604 157.751 306.609 157.851 306.609 156.046V154.388L304.929 154.385L303.247 154.38L303.171 154.333C303.124 154.304 303.077 154.257 303.047 154.21C303.005 154.139 303 154.12 303 153.997C303 153.873 303.005 153.855 303.047 153.784C303.077 153.737 303.124 153.69 303.171 153.661L303.247 153.614L304.929 153.609L306.609 153.606L306.612 151.927L306.616 150.247L306.663 150.171C306.693 150.124 306.74 150.077 306.787 150.047C306.858 150.005 306.876 150 307 150C307.124 150 307.142 150.005 307.213 150.047C307.26 150.077 307.307 150.124 307.337 150.171L307.384 150.247L307.388 151.927L307.391 153.606L309.071 153.609L310.753 153.614L310.829 153.661C310.876 153.69 310.923 153.737 310.953 153.784C310.995 153.855 311 153.873 311 153.997C311 154.12 310.995 154.139 310.953 154.21C310.923 154.257 310.876 154.304 310.829 154.333L310.753 154.38L309.071 154.385L307.391 154.388L307.388 156.067L307.384 157.747L307.337 157.823C307.265 157.939 307.166 157.992 307.017 157.998C306.914 158.003 306.887 157.998 306.815 157.963Z" fill="white"/>
<path d="M301.853 100.387H121.309C118.548 100.387 116.309 102.626 116.309 105.387V114.818C116.309 117.579 118.548 119.818 121.309 119.818H301.853C304.614 119.818 306.853 117.579 306.853 114.818V105.387C306.853 102.626 304.614 100.387 301.853 100.387Z" fill="#E5E5E5"/>
<line x1="142" y1="111" x2="189" y2="111" stroke="#959595" stroke-width="2" stroke-linecap="round"/>
<circle cx="132" cy="111" r="6" fill="#FF744C"/>
<path d="M134.536 109.006C134.409 109.027 134.479 108.962 133.086 110.353L131.799 111.639L131.209 111.052C130.664 110.507 130.616 110.462 130.559 110.438C130.38 110.36 130.17 110.421 130.064 110.583C130.019 110.649 130 110.715 130 110.803C130 110.889 130.019 110.955 130.059 111.018C130.074 111.042 130.42 111.396 130.828 111.802C131.637 112.611 131.601 112.58 131.74 112.601C131.822 112.615 131.898 112.602 131.983 112.563C132.044 112.535 132.129 112.452 133.492 111.089C134.879 109.702 134.936 109.642 134.968 109.577C134.998 109.512 135 109.502 135 109.401C135 109.301 134.998 109.288 134.97 109.23C134.892 109.066 134.717 108.976 134.536 109.006Z" fill="white"/>
<path d="M3.87996 243.618C3.86088 243.534 2.01567 235.137 5.78406 228.163C9.55243 221.189 17.5964 218.113 17.6772 218.083L18.0448 217.945L18.1317 218.328C18.1507 218.412 19.9959 226.808 16.2276 233.783C12.4594 240.756 4.41526 243.832 4.33444 243.862L3.96663 244L3.87996 243.618ZM17.5406 218.878C15.9294 219.57 9.57017 222.597 6.38746 228.487C3.20442 234.378 4.16476 241.344 4.47098 243.067C6.08158 242.377 12.4383 239.354 15.6242 233.458C18.807 227.568 17.847 220.602 17.5406 218.878V218.878Z" fill="#F1F1F1"/>
<path d="M13.3478 231.336C6.57588 235.402 3.96777 243.478 3.96777 243.478C3.96777 243.478 12.3392 244.962 19.1112 240.896C25.8831 236.83 28.4912 228.754 28.4912 228.754C28.4912 228.754 20.1198 227.271 13.3478 231.336Z" fill="#F1F1F1"/>
<path d="M115.901 166.157C116.004 165.626 115.989 165.077 115.857 164.552C115.725 164.026 115.479 163.536 115.137 163.115C114.794 162.695 114.364 162.354 113.875 162.118C113.387 161.882 112.852 161.755 112.309 161.747L109.173 153.877L103.916 154.612L108.501 165.664C108.548 166.575 108.928 167.437 109.57 168.087C110.211 168.737 111.069 169.13 111.981 169.191C112.893 169.252 113.796 168.976 114.519 168.417C115.241 167.858 115.733 167.054 115.901 166.157Z" fill="#9F616A"/>
<path d="M106.215 163.392L104.586 159.516L94.4346 140.232L94.9865 104.551L95.0925 104.537C101.588 103.681 105.983 133.548 106.167 134.82L112.581 156.711L114.108 161.536L106.215 163.392Z" fill="#382AEE"/>
<path d="M90.617 238.631L95.5526 238.631L97.9004 219.633L90.616 219.633L90.617 238.631Z" fill="#9F616A"/>
<path d="M89.358 237.023L99.0781 237.023H99.0785C100.721 237.023 102.297 237.674 103.458 238.833C104.62 239.993 105.273 241.565 105.273 243.204V243.405L89.3583 243.406L89.358 237.023Z" fill="#2F2E41"/>
<path d="M45.2356 231.127L49.2853 233.943L62.0961 219.696L56.1194 215.54L45.2356 231.127Z" fill="#9F616A"/>
<path d="M45.1242 229.089L53.099 234.635L53.0993 234.635C54.4471 235.573 55.3665 237.006 55.6554 238.62C55.9443 240.234 55.579 241.896 54.6398 243.241L54.5247 243.406L41.4677 234.326L45.1242 229.089Z" fill="#2F2E41"/>
<path d="M87.9044 234.166L87.6911 198.527L84.5856 176.117L78.7957 195.824L78.7844 195.84L57.8026 226.238L49.6383 222.11L49.683 222.004C50.182 220.82 61.9388 193.006 65.0989 193.006C65.3748 193.025 65.6514 192.977 65.9046 192.866C66.1579 192.755 66.3803 192.584 66.5527 192.368C67.4802 191.132 66.7249 188.509 66.7172 188.483C65.8125 184.74 68.0871 183.465 68.5401 183.252L69.7586 158.151L69.8849 158.159L102.918 160.471L101.532 191.855L98.5508 232.973L98.4484 232.985L87.9044 234.166Z" fill="#2F2E41"/>
<path d="M103.422 166.033L103.28 166.022L67.7537 163.164L67.8414 151.434L69.5802 120.805L69.59 120.784L76.6712 105.443L81.6908 103.174L89.0144 102.79L89.0323 102.794L95.7159 104.447L102.669 154.254L103.422 166.033Z" fill="#382AEE"/>
<path d="M90.162 98.8581C94.6948 96.3854 96.3607 90.7139 93.8828 86.1904C91.4049 81.667 85.7217 80.0046 81.1889 82.4773C76.6561 84.95 74.9903 90.6216 77.4681 95.145C79.946 99.6684 85.6292 101.331 90.162 98.8581Z" fill="#9F616A"/>
<path d="M76.2686 93.0108V89.374C76.2686 89.374 73.3296 85.9197 76.5625 85.0496C76.5625 85.0496 77.4442 76.3483 85.0856 80.4089C85.0856 80.4089 95.6659 78.6686 94.4903 84.7595C94.4903 84.7595 97.1354 83.1694 96.2537 87.23L94.5485 93.7709C94.5485 93.7709 95.372 89.4502 92.7269 88.8701L91.2574 88C91.2574 88 87.1428 92.0606 80.971 87.1298C80.971 87.1298 78.3259 86.4998 78.6198 89.1102C78.9137 91.7206 76.2686 93.0108 76.2686 93.0108Z" fill="#2F2E41"/>
<path d="M84.7015 157.274C84.7074 156.732 84.5942 156.195 84.3698 155.702C84.1455 155.208 83.8155 154.77 83.403 154.418C82.9906 154.065 82.5057 153.807 81.9826 153.662C81.4595 153.517 80.9108 153.488 80.3753 153.578L75.875 146.397L70.8352 148.062L77.3333 158.113C77.5433 159.001 78.0724 159.781 78.8203 160.306C79.5682 160.83 80.4829 161.063 81.3912 160.959C82.2994 160.856 83.138 160.424 83.7482 159.744C84.3583 159.065 84.6975 158.186 84.7015 157.274Z" fill="#9F616A"/>
<path d="M73.0781 155.01L64.9364 138.514L64.9436 138.474C64.9764 138.291 68.2538 120.132 70.7603 113.457C73.2828 106.739 76.7355 105.391 76.8812 105.337L76.9541 105.309L80.05 108.273L75.7615 136.839L80.3841 150.615L73.0781 155.01Z" fill="#382AEE"/>
<path d="M119.912 243.986H-10.6573C-10.7482 243.986 -10.8354 243.95 -10.8996 243.886C-10.9639 243.822 -11 243.735 -11 243.644C-11 243.554 -10.9639 243.467 -10.8996 243.402C-10.8354 243.338 -10.7482 243.302 -10.6573 243.302H119.912C120.003 243.302 120.09 243.338 120.154 243.402C120.218 243.467 120.255 243.554 120.255 243.644C120.255 243.735 120.218 243.822 120.154 243.886C120.09 243.95 120.003 243.986 119.912 243.986Z" fill="#CBCBCB"/>
</g>
<path d="M12.64 34.28C10.5867 34.28 8.74667 33.9467 7.12 33.28C5.49333 32.6133 4.18667 31.6267 3.2 30.32C2.24 29.0133 1.73333 27.44 1.68 25.6H8.96C9.06667 26.64 9.42667 27.44 10.04 28C10.6533 28.5333 11.4533 28.8 12.44 28.8C13.4533 28.8 14.2533 28.5733 14.84 28.12C15.4267 27.64 15.72 26.9867 15.72 26.16C15.72 25.4667 15.48 24.8933 15 24.44C14.5467 23.9867 13.9733 23.6133 13.28 23.32C12.6133 23.0267 11.6533 22.6933 10.4 22.32C8.58667 21.76 7.10667 21.2 5.96 20.64C4.81333 20.08 3.82667 19.2533 3 18.16C2.17333 17.0667 1.76 15.64 1.76 13.88C1.76 11.2667 2.70667 9.22667 4.6 7.76C6.49333 6.26667 8.96 5.52 12 5.52C15.0933 5.52 17.5867 6.26667 19.48 7.76C21.3733 9.22667 22.3867 11.28 22.52 13.92H15.12C15.0667 13.0133 14.7333 12.3067 14.12 11.8C13.5067 11.2667 12.72 11 11.76 11C10.9333 11 10.2667 11.2267 9.76 11.68C9.25333 12.1067 9 12.7333 9 13.56C9 14.4667 9.42667 15.1733 10.28 15.68C11.1333 16.1867 12.4667 16.7333 14.28 17.32C16.0933 17.9333 17.56 18.52 18.68 19.08C19.8267 19.64 20.8133 20.4533 21.64 21.52C22.4667 22.5867 22.88 23.96 22.88 25.64C22.88 27.24 22.4667 28.6933 21.64 30C20.84 31.3067 19.6667 32.3467 18.12 33.12C16.5733 33.8933 14.7467 34.28 12.64 34.28ZM30.5294 9.36C29.3294 9.36 28.3427 9.01333 27.5694 8.32C26.8227 7.6 26.4494 6.72 26.4494 5.68C26.4494 4.61333 26.8227 3.73333 27.5694 3.04C28.3427 2.32 29.3294 1.96 30.5294 1.96C31.7027 1.96 32.6627 2.32 33.4094 3.04C34.1827 3.73333 34.5694 4.61333 34.5694 5.68C34.5694 6.72 34.1827 7.6 33.4094 8.32C32.6627 9.01333 31.7027 9.36 30.5294 9.36ZM33.9294 11.68V34H27.0894V11.68H33.9294ZM47.3663 11.36C48.9396 11.36 50.3129 11.68 51.4863 12.32C52.6863 12.96 53.6063 13.8 54.2463 14.84V11.68H61.0863V33.96C61.0863 36.0133 60.6729 37.8667 59.8463 39.52C59.0463 41.2 57.8063 42.5333 56.1263 43.52C54.4729 44.5067 52.4063 45 49.9263 45C46.6196 45 43.9396 44.2133 41.8863 42.64C39.8329 41.0933 38.6596 38.9867 38.3663 36.32H45.1263C45.3396 37.1733 45.8463 37.84 46.6463 38.32C47.4463 38.8267 48.4329 39.08 49.6063 39.08C51.0196 39.08 52.1396 38.6667 52.9663 37.84C53.8196 37.04 54.2463 35.7467 54.2463 33.96V30.8C53.5796 31.84 52.6596 32.6933 51.4863 33.36C50.3129 34 48.9396 34.32 47.3663 34.32C45.5263 34.32 43.8596 33.8533 42.3663 32.92C40.8729 31.96 39.6863 30.6133 38.8063 28.88C37.9529 27.12 37.5263 25.0933 37.5263 22.8C37.5263 20.5067 37.9529 18.4933 38.8063 16.76C39.6863 15.0267 40.8729 13.6933 42.3663 12.76C43.8596 11.8267 45.5263 11.36 47.3663 11.36ZM54.2463 22.84C54.2463 21.1333 53.7663 19.7867 52.8063 18.8C51.8729 17.8133 50.7263 17.32 49.3663 17.32C48.0063 17.32 46.8463 17.8133 45.8863 18.8C44.9529 19.76 44.4863 21.0933 44.4863 22.8C44.4863 24.5067 44.9529 25.8667 45.8863 26.88C46.8463 27.8667 48.0063 28.36 49.3663 28.36C50.7263 28.36 51.8729 27.8667 52.8063 26.88C53.7663 25.8933 54.2463 24.5467 54.2463 22.84ZM79.6347 11.44C82.248 11.44 84.328 12.2933 85.8747 14C87.448 15.68 88.2347 18 88.2347 20.96V34H81.4347V21.88C81.4347 20.3867 81.048 19.2267 80.2747 18.4C79.5014 17.5733 78.4614 17.16 77.1547 17.16C75.848 17.16 74.808 17.5733 74.0347 18.4C73.2614 19.2267 72.8747 20.3867 72.8747 21.88V34H66.0347V11.68H72.8747V14.64C73.568 13.6533 74.5014 12.88 75.6747 12.32C76.848 11.7333 78.168 11.44 79.6347 11.44ZM108.304 5.92V34H101.464V5.92H108.304ZM126.861 11.44C129.475 11.44 131.555 12.2933 133.101 14C134.675 15.68 135.461 18 135.461 20.96V34H128.661V21.88C128.661 20.3867 128.275 19.2267 127.501 18.4C126.728 17.5733 125.688 17.16 124.381 17.16C123.075 17.16 122.035 17.5733 121.261 18.4C120.488 19.2267 120.101 20.3867 120.101 21.88V34H113.261V11.68H120.101V14.64C120.795 13.6533 121.728 12.88 122.901 12.32C124.075 11.7333 125.395 11.44 126.861 11.44Z" fill="#382AEE"/>
<defs>
<clipPath id="clip0_60_1158">
<rect width="350" height="210" fill="white" transform="translate(0 34)"/>
</clipPath>
</defs>
</svg>
