<svg width="356" height="356" viewBox="0 0 356 356" fill="none" xmlns="http://www.w3.org/2000/svg">
<g clip-path="url(#clip0_60_671)">
<rect x="47.5" y="0.5" width="186" height="110" rx="4.5" fill="#382AEE" stroke="#666666" stroke-linejoin="round"/>
<path fill-rule="evenodd" clip-rule="evenodd" d="M135.341 45.6451C132.545 43.0764 130.459 39.7638 130.252 35.7905C129.655 24.342 145.762 24.899 149.539 30.2504C153.316 35.6019 154.735 50.1784 150.888 51.69C149.354 52.2928 145.857 51.707 142.168 50.0585L146.196 65.0456L133.467 66.6085L135.341 45.6451Z" fill="#EEF2FE"/>
<path fill-rule="evenodd" clip-rule="evenodd" d="M141.473 24.5387C139.761 24.4696 135.221 24.8351 134.388 24.9375C133.855 25.0029 133.293 25.1953 132.918 24.7452C132.611 24.3766 132.622 23.688 132.488 23.2329C132.332 22.7043 132.14 22.1872 131.946 21.6717C131.394 20.2047 130.665 18.8343 129.725 17.5788C127.961 15.2235 125.59 13.5002 122.762 12.6751C119.639 11.7642 116.247 11.8844 113.088 12.5347C109.708 13.2307 106.755 14.7373 103.662 16.1938C100.714 17.5817 97.5454 18.3747 94.2718 18.2756C90.9736 18.1758 88.3122 16.7216 85.3772 15.3916C82.3726 14.0299 79.0412 13.3071 75.7682 13.9692C72.7129 14.5873 70.0263 16.21 67.6845 18.2246C65.4935 20.1096 63.7595 22.2666 62.9788 25.0986C62.1388 28.1451 62.5307 31.3278 64.8121 33.6489C68.1188 37.0133 73.5289 37.3241 77.92 36.688C80.46 36.3202 82.904 35.5482 85.2046 34.4074C88.2726 32.8858 90.8088 30.634 93.6182 28.7147C94.9366 27.814 96.3184 27.0376 97.7908 26.4198C99.2196 25.82 100.654 25.4493 102.104 26.1789C103.638 26.9507 105.022 27.7239 106.717 28.1169C108.342 28.494 110.029 28.6093 111.685 28.393C114.907 27.9721 117.963 26.5768 121.013 25.5191C123.5 24.6567 126.166 23.7742 128.835 23.982C129.948 24.0687 131.591 24.3283 132.123 25.4095C125.664 27.4178 124.072 35.9058 126.671 41.6743C128.074 44.7878 134.58 47.8299 136.72 45.8398C138.076 44.579 136.999 43.2746 136.299 42.4121C134.96 40.7603 134.294 38.5091 136.214 37.009C137.869 35.7151 140.061 38.0357 140.097 38.0286C140.583 37.9296 144.533 35.0079 147.027 31.1459C149.933 30.9627 150.137 29.0066 149.257 27.5355C148.377 26.0644 143.837 24.6345 141.473 24.5387Z" fill="#191847"/>
<path fill-rule="evenodd" clip-rule="evenodd" d="M137.825 110.299L157.4 177.752L166.607 228.396H175.848L166.623 110.299H137.825Z" fill="#784931"/>
<path fill-rule="evenodd" clip-rule="evenodd" d="M129.028 110.299C130.394 145.34 129.855 164.453 129.55 167.636C129.244 170.82 127.508 192.142 115.683 229.465H125.294C140.955 193.66 146.423 172.338 148.219 167.636C150.015 162.935 155.32 143.822 163.066 110.299H129.028Z" fill="#EEF2FE"/>
<path fill-rule="evenodd" clip-rule="evenodd" d="M137.405 110.299C142.497 133.51 151.303 170.56 163.824 221.449H177.34C178.338 169.216 174.092 134.838 166.737 110.299H137.405Z" fill="#69A1AC"/>
<path fill-rule="evenodd" clip-rule="evenodd" d="M128.96 110.299C130.298 145.34 126.831 179.863 116.093 221.995H130.513C146.204 186.724 157.449 152.372 165.135 110.299H128.96Z" fill="#C5CFD6"/>
<path fill-rule="evenodd" clip-rule="evenodd" d="M181.954 98.1681L200.915 107.535C205.684 107.961 209.758 108.819 213.135 110.108C213.972 110.639 215.079 111.816 212.046 112.114C209.013 112.412 205.836 112.861 205.603 113.954C205.37 115.048 207.396 115.949 206.804 117.474C206.41 118.49 203.375 116.651 197.7 111.958L179.861 107.996L181.954 98.1681ZM117.577 109.958L128.582 108.062C125.657 131.18 124.042 143.458 123.737 144.894C123.052 148.127 126.439 152.269 127.976 154.544C124.67 156.783 124.004 150.768 119.848 153.673C116.054 156.324 113.525 160.362 108.231 158.258C107.58 157.999 106.696 156.749 108.063 155.409C111.467 152.071 116.227 146.44 116.711 144.778C117.372 142.511 117.66 130.904 117.577 109.958Z" fill="#EEF2FE"/>
<path fill-rule="evenodd" clip-rule="evenodd" d="M140.693 58.301L145.106 56.7181C164.562 68.3264 176.438 95.124 199.751 106.318L195.858 113.371C159.171 115.256 144.246 82.6475 140.693 58.301Z" fill="#887FF5"/>
<path fill-rule="evenodd" clip-rule="evenodd" d="M130.939 118.986C149.186 115.769 162.607 113.402 171.204 111.887C173.044 111.562 172.229 108.967 171.726 107.673C165.929 92.7419 151.005 78.1764 147.122 56.1522L135.187 56.3788C128.304 73.5228 128.336 93.1307 130.939 118.986Z" fill="#DDE3E9"/>
<path fill-rule="evenodd" clip-rule="evenodd" d="M123.362 74.1226C121.59 73.9352 120.055 73.0398 118.757 71.4366C113.161 64.5254 113.951 60.0378 118.243 57.8516C122.535 55.6655 127.084 57.8075 134.312 56.533C134.705 56.4637 135.07 56.4249 135.405 56.4165L139.078 55.9829C155.743 89.4977 162.78 112.578 160.186 125.224L128.495 130.812C127.389 135.522 126.242 139.522 125.053 142.814L116.418 144.337C110.972 118.203 113.287 94.7979 123.362 74.1226Z" fill="#887FF5"/>
<path fill-rule="evenodd" clip-rule="evenodd" d="M132.194 111.438C134.661 119.602 137.348 125.369 140.256 128.739L128.495 130.812C129.784 125.319 131.018 118.861 132.194 111.438L132.194 111.438Z" fill="black" fill-opacity="0.1"/>
</g>
<g clip-path="url(#clip1_60_671)">
<rect  x="0.5" y="243.5" width="233" height="112" rx="4.5" fill="#382AEE" stroke="#666666" stroke-linejoin="round"/>
<path fill-rule="evenodd" clip-rule="evenodd" d="M86.4356 279.261C89.2411 275.968 91.1399 271.932 90.8227 267.41C89.9084 254.381 71.7709 257.247 68.2427 263.823C64.7146 270.399 65.1338 287.08 69.6936 288.256C71.5121 288.724 75.3859 287.576 79.3285 285.2L76.8538 302.707H91.4661L86.4356 279.261Z" fill="#EEF2FE"/>
<path fill-rule="evenodd" clip-rule="evenodd" d="M87.5588 282.194C89.3928 274.035 94.6175 268.473 93.8196 264.826C93.2876 262.395 91.8698 260.883 89.5661 260.291C88.3746 255.471 84.532 253.421 78.0381 254.14C68.2972 255.22 62.3519 259.265 64.9194 268.166C67.2795 268.166 70.1287 267.313 74.0685 268.775C75.3185 269.239 76.2126 270.678 76.7507 273.092H78.5311C80.259 270.228 81.9628 269.175 83.6424 269.934C85.3219 270.693 85.7037 272.538 84.7878 275.467L85.6648 282.194H87.5588Z" fill="#191847"/>
<path fill-rule="evenodd" clip-rule="evenodd" d="M47.1047 393.577C65.6725 390.552 78.1094 388.484 84.4155 387.372C102.39 384.203 107.632 374.53 104.533 353.426H71.4145C67.0318 354.691 48.7191 362.519 16.4765 376.908C10.6755 379.788 11.7558 388.279 12.8162 391.076C12.8594 391.19 22.6389 407.948 42.1547 441.349L69.247 424.09L47.0538 395.611C46.4677 394.431 46.4846 393.753 47.1047 393.577Z" fill="#5C63AB"/>
<path fill-rule="evenodd" clip-rule="evenodd" d="M44.7186 345.455L25.2975 359.717C20.0301 361.138 15.6294 362.906 12.0953 365.022C11.2605 365.782 10.2515 367.323 13.7137 367.057C17.1759 366.79 20.8295 366.666 21.3072 367.847C21.7849 369.028 19.6898 370.44 20.6555 372.033C21.2993 373.096 24.3407 370.432 29.7798 364.043L49.0118 356.068L44.7186 345.455ZM119.286 345.947L106.562 345.997C114.418 371.358 118.659 384.814 119.286 386.366C120.694 389.857 117.713 395.175 116.438 398.032C120.591 399.89 120.148 393.009 125.386 395.446C130.167 397.671 133.804 401.701 139.328 398.292C140.007 397.873 140.751 396.296 138.953 395.063C134.474 391.991 128.018 386.615 127.146 384.845C125.956 382.432 123.336 369.466 119.286 345.947Z" fill="#EEF2FE"/>
<path fill-rule="evenodd" clip-rule="evenodd" d="M83.1283 292.559L77.8635 291.656C58.3298 308.531 50.3066 340.948 26.3631 358.121L32.1261 365.265C73.6637 360.122 83.9592 320.58 83.1283 292.559Z" fill="#FF744C"/>
<path fill-rule="evenodd" clip-rule="evenodd" d="M106.079 358.721C84.9689 358.721 69.4411 358.721 59.4951 358.721C57.3665 358.721 57.7676 355.647 58.0753 354.096C61.6266 336.196 75.4895 316.901 75.4895 291.42L88.9264 289.313C100.04 307.188 103.884 329.195 106.079 358.721Z" fill="#DDE3E9"/>
<path fill-rule="evenodd" clip-rule="evenodd" d="M105.704 306.883C107.656 306.322 109.201 305.014 110.34 302.958C115.252 294.096 113.478 289.217 108.229 287.613C102.981 286.009 98.3004 289.313 89.9381 289.313C89.4832 289.313 89.0667 289.341 88.6883 289.398L84.4819 289.638C72.4132 330.541 69.0847 357.83 74.4964 371.507H111.161C113.334 376.572 115.412 380.834 117.398 384.292H127.388C128.328 353.891 121.1 328.088 105.704 306.883Z" fill="#FFAC94"/>
<path fill-rule="evenodd" clip-rule="evenodd" d="M103.177 350.5C102.024 360.148 100.15 367.15 97.555 371.507H111.161C108.628 365.598 105.966 358.596 103.177 350.5Z" fill="black" fill-opacity="0.1"/>
<circle cx="185.5" cy="284.5" r="30.5" fill="#FF744C"/>
<path d="M201.625 271.07C200.711 271.224 201.217 270.753 191.198 280.759L181.938 290.012L177.698 285.786C173.774 281.87 173.43 281.546 173.022 281.37C171.735 280.808 170.223 281.251 169.457 282.411C169.134 282.889 169 283.36 169 284C169 284.619 169.134 285.09 169.422 285.54C169.534 285.716 172.023 288.261 174.955 291.186C180.777 297.001 180.517 296.776 181.516 296.93C182.106 297.029 182.655 296.938 183.266 296.656C183.702 296.452 184.314 295.855 194.116 286.053C204.093 276.076 204.508 275.647 204.733 275.176C204.951 274.712 204.965 274.641 204.965 273.91C204.965 273.193 204.951 273.102 204.747 272.68C204.191 271.505 202.926 270.852 201.625 271.07Z" fill="white"/>
</g>
<rect x="0.5" y="4.5" width="35" height="106" rx="4.5" fill="#C4C0FA" stroke="#666666" stroke-linejoin="round"/>
<line x1="18.5" y1="72.5" x2="18.5" y2="35.5" stroke="#382AEE" stroke-width="5" stroke-linecap="round"/>
<circle cx="18.5" cy="80.5" r="3" fill="#382AEE" stroke="#382AEE"/>
<rect x="245.5" y="311.5" width="110" height="44" rx="4.5" fill="#C4C0FA" stroke="#666666" stroke-linejoin="round"/>
<circle cx="304.5" cy="333.5" r="12.5" fill="white"/>
<circle cx="291.5" cy="333.5" r="12.5" fill="#110976"/>
<rect x="245.5" y="0.5" width="110" height="110" rx="4.5" fill="#382AEE" stroke="#666666" stroke-linejoin="round"/>
<g clip-path="url(#clip2_60_671)">
<path fill-rule="evenodd" clip-rule="evenodd" d="M312.506 74.6297C316.861 69.5214 319.809 63.2612 319.316 56.2464C317.897 36.0348 289.739 40.4811 284.262 50.6822C278.784 60.8832 279.435 86.759 286.514 88.5823C289.337 89.3094 295.351 87.5283 301.472 83.8419L297.63 111H320.315L312.506 74.6297Z" fill="#EDF2FE"/>
<path fill-rule="evenodd" clip-rule="evenodd" d="M274.212 36.5404C274.682 34.8905 275.945 33.4779 277.648 33.0588C278.061 32.9571 278.487 32.9161 278.912 32.9332C279.065 32.9393 279.108 32.9832 279.179 32.8767C279.232 32.7977 279.233 32.6048 279.255 32.5121C279.322 32.2235 279.407 31.9386 279.511 31.661C279.868 30.7144 280.466 29.8765 281.188 29.1708C282.538 27.8504 284.362 26.9392 286.258 26.7743C287.295 26.6841 288.325 26.8525 289.305 27.1897C289.813 27.3642 290.305 27.5816 290.785 27.8218C290.929 27.8942 291.398 28.2484 291.542 28.2254C291.702 28.2001 292.024 27.8028 292.154 27.7031C293.762 26.4702 295.748 25.9855 297.751 26.0003C300.012 26.017 302.189 26.1299 304.075 27.5071C304.474 27.7986 304.854 28.1179 305.216 28.454C305.407 28.6309 305.591 28.8145 305.768 29.0057C305.874 29.1211 305.977 29.2391 306.077 29.3602C306.246 29.5658 306.219 29.6334 306.455 29.4899C307.363 28.939 308.414 28.6814 309.474 28.8114C310.102 28.8887 310.714 29.0774 311.295 29.3257C311.493 29.4103 311.951 29.7475 312.162 29.7508C312.371 29.754 312.823 29.4414 313.038 29.3619C314.202 28.9327 315.456 28.8269 316.68 29.0252C317.941 29.2299 319.181 29.7329 320.25 30.428C320.764 30.7624 321.213 31.1328 321.573 31.63C321.729 31.8447 321.869 32.0717 322.046 32.2708C322.149 32.3873 322.353 32.5069 322.409 32.6544C322.376 32.5661 323.789 32.0218 323.922 31.987C324.632 31.8016 325.356 31.8392 326.051 32.0679C327.359 32.498 328.484 33.4626 329.409 34.4516C329.884 34.9596 330.299 35.5211 330.652 36.1193C330.821 36.4058 330.976 36.7006 331.117 37.0016C331.186 37.1474 331.231 37.3298 331.321 37.4612C331.438 37.6304 331.516 37.6336 331.727 37.7074C332.797 38.0822 333.773 38.7165 334.516 39.5736C335.268 40.4408 335.756 41.5086 335.96 42.6332C335.972 42.6994 335.98 42.9739 336.018 43.0098C336.072 43.0591 336.287 43.0373 336.368 43.0469C336.65 43.0799 336.93 43.1291 337.207 43.1945C337.716 43.3149 338.212 43.4922 338.681 43.724C340.509 44.6278 341.816 46.3221 342.456 48.2286C343.127 50.2293 343.115 52.5215 342.313 54.4849C342.183 54.802 342.029 55.1099 341.848 55.4011C341.737 55.5798 341.701 55.5803 341.773 55.7678C341.854 55.9765 342.001 56.1792 342.096 56.3831C342.408 57.0484 342.626 57.7541 342.764 58.4748C342.99 59.657 343.102 60.8994 342.879 62.0906C342.775 62.6437 342.595 63.1845 342.32 63.6771C342.18 63.9283 342.016 64.1665 341.83 64.3869C341.734 64.5013 341.632 64.6106 341.525 64.7153C341.464 64.7751 341.384 64.8275 341.332 64.8943C341.205 65.0571 341.178 64.9232 341.244 65.1624C341.335 65.4968 341.542 65.8267 341.669 66.152C341.8 66.4873 341.919 66.8272 342.027 67.1705C342.246 67.8655 342.431 68.5731 342.547 69.2929C342.769 70.6749 342.73 72.1474 342.076 73.4157C341.796 73.9582 341.395 74.4341 340.908 74.8043C340.67 74.9854 340.412 75.1415 340.141 75.2697C340.002 75.3357 339.825 75.364 339.761 75.4984C339.693 75.6429 339.794 75.9299 339.818 76.0915C340.019 77.4971 340.12 78.9729 339.701 80.3503C339.316 81.619 338.468 82.7391 337.367 83.4807C335.232 84.9193 332.353 84.8382 330.108 83.6865C329.523 83.3863 328.976 83.0135 328.488 82.5738C327.245 84.246 324.687 84.1931 322.87 83.7166C320.606 83.123 318.79 81.5503 317.743 79.4839C316.312 81.2245 313.309 80.6598 312.317 78.7715C312.074 78.3094 311.93 77.8 311.859 77.2846C311.822 77.0136 311.846 76.7402 311.818 76.4713C311.782 76.1287 311.553 75.7958 311.421 75.4643C311.165 74.8193 311.005 74.1529 310.999 73.4572C310.995 73.0939 311.041 72.7399 311.076 72.3795C311.107 72.0551 311.017 71.7529 310.966 71.4327C311.546 71.5282 312.253 71.3718 312.8 71.2036C313.337 71.0386 313.84 70.6038 314.219 70.2068C315.098 69.2849 315.636 68.0764 316.003 66.8736C316.81 64.2336 316.479 61.0662 313.822 59.6174C312.584 58.9424 308.875 58.9446 307.4 59.2782C305.85 59.629 304.092 63.0471 304.006 63.3684C303.952 63.5673 303.979 63.8134 303.797 63.9459C303.395 64.2372 302.732 63.7316 302.436 63.4821C301.924 63.0515 301.56 62.4785 301.244 61.8977C300.555 60.6324 300 59.2756 299.608 57.8904C299.306 56.8225 299.113 55.7212 298.718 54.6805C298.325 53.645 297.705 52.7194 296.742 52.1328C295.694 51.4946 294.493 51.1585 293.342 50.7575C292.202 50.3601 291.081 49.8743 290.197 49.031C290.003 48.8455 289.814 48.6485 289.658 48.4301C289.534 48.2578 289.412 47.9278 289.224 47.8185C288.931 47.6485 288.504 48.0906 288.251 48.2511C287.003 49.0432 285.962 50.1478 285.122 51.3545C284.287 52.5547 283.602 53.7095 283.045 55.0496C282.632 56.0436 282.374 57.3165 281.648 58.131C281.323 58.4947 278.912 58.7148 278.132 58.3972C277.351 58.0797 276.476 57.2552 276.213 56.7385C275.945 56.2096 275.881 55.6286 275.996 55.0496C276.063 54.709 276.201 54.3908 276.276 54.0563C276.34 53.7753 276.397 53.5096 276.534 53.2521C276.793 52.7643 277.237 52.4136 277.771 52.267C277.215 51.7545 276.754 51.1414 276.435 50.456C276.104 49.744 275.823 48.8781 275.743 48.0966C275.678 47.4618 275.778 46.8042 276.126 46.2587C276.491 45.6865 277.137 45.3131 277.696 44.9562C276.842 44.2884 276.111 43.4764 275.51 42.5773C274.341 40.8288 273.618 38.6249 274.212 36.5404Z" fill="#191847"/>
</g>
<rect x="0.5" y="122.5" width="71" height="112" rx="4.5" fill="#110976" stroke="#666666" stroke-linejoin="round"/>
<path d="M36 202C49.2548 202 60 191.255 60 178C60 164.745 49.2548 154 36 154C22.7452 154 12 164.745 12 178C12 191.255 22.7452 202 36 202Z" fill="#EEF2FE"/>
<path d="M36 160.34C36.7502 160.34 37.3585 159.731 37.3585 158.981C37.3585 158.231 36.7502 157.623 36 157.623C35.2497 157.623 34.6415 158.231 34.6415 158.981C34.6415 159.731 35.2497 160.34 36 160.34Z" fill="black" fill-opacity="0.1"/>
<path d="M16.9812 179.358C17.7314 179.358 18.3397 178.75 18.3397 178C18.3397 177.25 17.7314 176.642 16.9812 176.642C16.2309 176.642 15.6227 177.25 15.6227 178C15.6227 178.75 16.2309 179.358 16.9812 179.358Z" fill="black" fill-opacity="0.1"/>
<path d="M55.0189 179.358C55.7692 179.358 56.3774 178.75 56.3774 178C56.3774 177.25 55.7692 176.642 55.0189 176.642C54.2686 176.642 53.6604 177.25 53.6604 178C53.6604 178.75 54.2686 179.358 55.0189 179.358Z" fill="black" fill-opacity="0.1"/>
<path d="M36 198.377C36.7502 198.377 37.3585 197.769 37.3585 197.019C37.3585 196.269 36.7502 195.66 36 195.66C35.2497 195.66 34.6415 196.269 34.6415 197.019C34.6415 197.769 35.2497 198.377 36 198.377Z" fill="black" fill-opacity="0.1"/>
<path fill-rule="evenodd" clip-rule="evenodd" d="M36 161.698L36.9057 177.547H35.0944L36 161.698Z" fill="#110976"/>
<path fill-rule="evenodd" clip-rule="evenodd" d="M44.0144 186.014L35.6892 178.97L36.97 177.689L44.0144 186.014Z" fill="#110976"/>
<path d="M36 179.811C37.0004 179.811 37.8114 179 37.8114 178C37.8114 177 37.0004 176.189 36 176.189C34.9997 176.189 34.1887 177 34.1887 178C34.1887 179 34.9997 179.811 36 179.811Z" fill="#DDE3E9"/>
<rect x="245.5" y="122.5" width="110" height="173" rx="4.5" fill="#110976" stroke="#666666" stroke-linejoin="round"/>
<path d="M303.836 235.673C316.562 235.673 326.877 230.212 326.877 223.475C326.877 216.738 316.562 211.277 303.836 211.277C291.111 211.277 280.795 216.738 280.795 223.475C280.795 230.212 291.111 235.673 303.836 235.673Z" fill="#F2F2F2"/>
<path fill-rule="evenodd" clip-rule="evenodd" d="M330.672 231.878C330.672 216.908 318.657 204.771 303.836 204.771C289.015 204.771 277 216.908 277 231.878" fill="#DDE3E9"/>
<path d="M305.192 122H302.481V208.743H305.192V122Z" fill="#DDE3E9"/>
<g clip-path="url(#clip3_60_671)">
<rect x="82.5" y="122.5" width="151" height="112" rx="4.5" fill="#C4C0FA" stroke="#C4C0FA"/>
<path fill-rule="evenodd" clip-rule="evenodd" d="M125.563 139.209C126.207 138.889 127.066 139.26 126.707 140.104C126.324 141.008 124.905 141.02 124.104 141.002C124.184 140.997 124.442 140.168 124.531 140.043C124.791 139.673 125.167 139.406 125.563 139.209ZM118.146 155.683C117.919 155.878 118.128 155.702 118.146 155.683V155.683ZM126.311 143.407C126.697 143.698 126.715 144.213 126.4 144.562C126.025 144.977 125.34 144.962 124.83 144.922C124.599 144.904 123.365 144.807 123.657 144.607C123.635 144.615 123.588 144.636 123.538 144.663C123.51 144.761 123.482 144.859 123.452 144.956C123.46 144.96 123.466 144.965 123.474 144.969C123.465 144.965 123.459 144.961 123.452 144.958C123.155 145.929 122.732 146.853 122.178 147.718C122.385 147.638 122.6 147.576 122.817 147.549C123.461 147.468 124.815 147.963 124.094 148.812C123.403 149.626 122.329 148.754 121.545 148.634C120.785 149.685 119.947 150.692 119.068 151.665C119.122 151.682 119.169 151.717 119.196 151.771C119.548 151.594 119.916 151.34 120.242 151.271C120.712 151.172 121.677 151.112 122.032 151.529C122.469 152.041 122 152.458 121.484 152.557C120.734 152.7 119.754 152.338 119.033 152.093C118.95 152.108 118.86 152.084 118.807 152.019C118.791 152.013 118.775 152.008 118.759 152.003C117.869 152.972 116.946 153.909 116.028 154.825C116.037 154.825 116.047 154.824 116.057 154.824C116.297 154.668 116.554 154.54 116.832 154.473C117.476 154.318 118.233 154.316 118.756 154.778C119.276 155.237 119.46 156.04 118.921 156.556C117.843 157.589 116.256 155.236 115.713 155.138C114.779 156.059 113.793 156.92 112.791 157.764C112.905 157.729 113.021 157.704 113.142 157.693C114.124 157.599 116.429 158.79 115.223 159.964C114.172 160.987 112.957 159.02 112.111 158.332C111.167 159.118 110.218 159.899 109.295 160.711C109.798 160.578 110.284 160.558 110.823 160.719C111.381 160.886 112.281 161.303 111.928 162.049C111.569 162.808 110.488 162.464 109.925 162.223C109.618 162.092 109.002 161.649 108.462 161.462C106.989 162.839 105.714 164.355 104.748 166.141C104.145 167.256 103.687 168.448 103.364 169.672C103.158 170.453 102.753 171.766 102.834 172.783C102.448 170.747 103.148 168.302 103.901 166.482C104.594 164.809 105.63 163.34 106.843 162.017C106.539 161.111 103.979 159.805 105.51 158.962C106.323 158.516 107.156 159.255 107.333 160.037C107.455 160.575 107.269 161.25 107.071 161.772C107.453 161.369 107.849 160.979 108.258 160.601C108.823 160.08 109.402 159.574 109.986 159.074C109.024 158.179 108.115 155.621 109.405 155.202C111.31 154.585 110.391 158.075 110.258 158.729C110.22 158.732 110.191 158.72 110.169 158.696C110.18 158.756 110.192 158.82 110.207 158.885C111.325 157.933 112.459 156.999 113.556 156.025C113.457 155.952 113.301 155.676 113.177 155.529C112.899 155.198 112.632 154.852 112.438 154.464C112.131 153.851 111.834 152.874 112.65 152.513C113.537 152.12 113.958 153.225 113.964 153.885C113.968 154.341 113.842 154.774 113.777 155.221C113.756 155.361 113.835 155.989 113.643 155.719C113.652 155.819 113.653 155.891 113.649 155.942C113.846 155.766 114.041 155.589 114.235 155.41C114.226 155.387 114.22 155.362 114.218 155.334C114.208 155.137 114.408 155.061 114.548 155.119C114.804 154.878 115.058 154.633 115.307 154.384C115.835 153.857 116.371 153.314 116.903 152.76C116.788 152.662 116.834 152.526 116.726 152.422C116.618 152.318 116.406 152.26 116.279 152.164C115.961 151.921 115.697 151.567 115.506 151.218C115.191 150.642 114.783 149.434 115.705 149.159C116.656 148.876 117.137 150.038 117.198 150.765C117.21 150.906 117.103 152.176 117.021 152.637C118.006 151.607 118.974 150.538 119.852 149.451C119.586 149.448 118.832 148.909 118.68 148.762C118.308 148.403 117.717 147.61 118.37 147.19C118.949 146.817 119.664 147.356 119.911 147.88C119.952 147.967 120.095 148.77 120.106 149.13C120.469 148.669 120.816 148.206 121.138 147.74C121.353 147.431 121.554 147.114 121.742 146.79C121.697 146.764 121.654 146.72 121.614 146.665C120.648 146.503 119.416 145.01 120.552 144.489C121.092 144.242 121.679 144.752 121.943 145.169C121.997 145.255 122.085 145.684 122.156 146.023C122.697 144.949 123.111 143.812 123.426 142.647C123.342 142.626 123.27 142.562 123.261 142.453C122.792 142.188 122.421 141.968 122.094 141.458C121.89 141.142 121.524 140.419 122.122 140.243C122.901 140.014 123.389 141.191 123.453 141.771C123.46 141.838 123.46 142.034 123.457 142.213C123.484 142.21 123.511 142.21 123.538 142.215C123.717 141.493 123.86 140.762 123.974 140.03C123.549 139.894 123.477 137.685 123.76 137.37C124.393 136.665 124.838 137.683 124.804 138.221C124.764 138.855 124.474 139.432 124.128 139.944C124.091 139.998 124.101 139.996 124.092 139.92C124.086 139.957 124.074 139.985 124.055 140.005C124.073 140.339 124.107 140.681 124.09 140.976C124.042 141.822 123.942 142.673 123.797 143.508C123.762 143.711 123.722 143.913 123.676 144.112C124.018 143.824 124.479 143.568 124.659 143.488C125.126 143.28 125.847 143.055 126.311 143.407ZM102.757 172.703C102.78 172.974 102.847 173.222 102.979 173.426C102.882 173.193 102.809 172.951 102.757 172.703Z" fill="#D2EBE5"/>
<path fill-rule="evenodd" clip-rule="evenodd" d="M119.694 166.909C120.465 165.809 121.895 163.018 122.98 162.625C123.679 162.372 123.475 164.989 123.484 165.488C123.518 167.418 123.33 169.337 123.098 171.251C122.679 174.704 121.312 177.778 119.437 180.717C118.472 182.229 117.34 183.759 115.772 184.702C115.051 185.137 114.182 185.209 113.47 185.584C112.64 186.02 113.092 185.667 112.718 186.532C112.198 187.733 112.032 189.282 111.792 190.563C110.688 196.445 108.017 227.537 108.48 233.519C108.521 234.05 107.782 234.177 107.745 233.529C107.549 230.097 109.246 206.327 110.103 198.553C110.959 190.78 111.826 183.912 112.695 181.223C113.75 177.96 115.654 174.036 117.239 170.993C117.975 169.58 118.778 168.215 119.694 166.909Z" fill="#66BAA7"/>
<path fill-rule="evenodd" clip-rule="evenodd" d="M125.416 205.034C127.422 203.562 129.593 206.341 127.778 207.814C126.774 208.628 125.725 208.338 125.135 207.66C124.751 208.127 124.392 208.616 124.048 209.029C122.997 210.286 122.004 211.574 121.055 212.892C119.084 215.629 117.395 218.522 115.628 221.361C113.885 224.163 112.156 226.98 110.576 229.853C109.238 232.287 107.454 235.151 106.995 237.82C107.691 232.16 110.329 226.72 113.471 221.73C116.587 216.781 120.163 211.377 124.988 207.471C124.497 206.749 124.483 205.719 125.416 205.034Z" fill="#D2EBE5"/>
<path fill-rule="evenodd" clip-rule="evenodd" d="M87.351 191.231C88.4735 191.45 90.3077 193.99 91.233 194.957C92.3327 196.107 93.3303 197.332 94.2708 198.616C96.2953 201.38 98.1059 204.318 99.6455 207.383C102.155 212.378 104.166 217.506 105.626 222.946C106.519 226.276 107.097 229.727 107.44 233.154C107.505 233.8 108.182 238.783 107.206 238.918C106.328 239.039 106.599 235.134 106.557 234.603C106.078 228.61 104.643 222.78 102.647 217.132C102.213 215.902 101.809 214.395 101.114 213.288C100.613 212.49 101.11 212.768 100.23 212.466C99.4751 212.207 98.6144 212.27 97.8408 211.953C96.1604 211.264 94.8148 209.926 93.6353 208.58C91.3432 205.965 89.5268 203.136 88.5799 199.785C88.0547 197.927 87.572 196.058 87.3042 194.142C87.2349 193.647 86.6279 191.089 87.351 191.231Z" fill="#D2EBE5"/>
<path fill-rule="evenodd" clip-rule="evenodd" d="M91.7808 148.981C96.0091 156.314 99.4838 164.369 101.727 172.528C103.087 177.471 104.037 182.544 104.982 187.579C106.444 195.377 107.828 203.174 108.221 211.109C108.617 219.091 109.4 228.297 106.786 235.985C108.092 228.18 106.849 219.872 106.629 212.018C106.524 208.269 106.219 204.557 105.819 200.829C105.431 197.214 104.797 193.615 104.207 190.028C103.92 188.281 103.618 186.536 103.31 184.793C103.218 184.273 103.18 182.729 102.85 182.374C102.518 182.016 100.823 181.87 100.291 181.608C99.2201 181.079 98.2124 180.328 97.3207 179.535C95.6111 178.014 94.1239 176.027 92.9501 174.068C90.2342 169.535 89.1484 164.004 89.2033 158.754C89.2138 157.735 90.8529 146.76 90.1946 146.609C90.2343 146.563 90.2717 146.515 90.3071 146.465C90.8055 147.299 91.2945 148.139 91.7808 148.981Z" fill="#66BAA7"/>
<path fill-rule="evenodd" clip-rule="evenodd" d="M137.419 175.428C137.484 175.334 137.909 174.68 137.695 174.722C138.13 174.636 137.096 175.443 138.181 174.948C137.666 175.435 137.963 176.066 137.97 176.721C137.981 177.784 137.803 178.838 137.603 179.878C137.287 181.523 136.815 183.121 136.131 184.65C134.641 187.983 132.109 191.191 129.104 193.274C127.62 194.303 126.166 194.653 124.474 195.127C123.405 195.426 123.32 195.979 122.753 197.016C121.572 199.176 120.412 201.329 119.37 203.562C118.126 206.228 116.919 208.898 115.78 211.611C111.943 220.752 108.82 230.221 107.18 240.021C107.14 234.246 108.476 228.298 110.161 222.794C111.388 218.783 112.986 214.917 114.691 211.09C115.104 210.163 115.73 208.97 115.905 207.947C116.028 207.23 115.653 206.54 115.481 205.784C114.81 202.843 114.858 199.547 115.447 196.589C116.096 193.327 117.973 191.814 121.147 191.352C122.308 191.183 123.784 191.245 124.849 190.75C126.008 190.211 126.487 188.439 127.146 187.301C128.918 184.246 131.023 181.315 133.44 178.741C134.109 178.028 134.829 177.37 135.592 176.761C136.074 176.376 137.091 175.902 137.419 175.428Z" fill="#D2EBE5"/>
<path fill-rule="evenodd" clip-rule="evenodd" d="M154.321 154.762C152.076 152.127 150.558 148.899 150.811 145.282C151.543 134.86 166.051 137.152 168.873 142.413C171.695 147.673 171.36 161.016 167.713 161.956C166.258 162.331 163.159 161.413 160.006 159.512L161.985 173.516H150.297L154.321 154.762Z" fill="#EEF2FE"/>
<path fill-rule="evenodd" clip-rule="evenodd" d="M160.59 146.433C161.037 152.665 162.221 155.782 164.14 155.782C167.02 155.782 169.463 153.954 170.727 153.954C171.648 153.954 171.442 155.106 170.832 155.961C170.328 156.666 167.875 157.345 167.875 158.438C167.875 159.532 169.813 158.686 169.813 159.334C169.813 160.406 170.154 162.423 168.292 162.423C166.409 162.423 161.008 161.736 160.083 158.941C159.486 157.137 159.099 153.398 158.924 147.725C158.81 147.712 158.694 147.705 158.576 147.705C156.962 147.705 155.654 149.013 155.654 150.627C155.654 151.446 155.991 152.186 156.534 152.717C155.858 153.671 155.1 154.668 154.232 155.697C150.97 153.74 148.549 148.011 151.738 142.507C152.62 139.811 154.616 138.371 156.972 137.702C158.881 136.904 160.863 136.814 162.536 137.293C165.816 137.574 168.744 138.574 169.574 139.168C169.574 142.273 168.973 143.194 163.834 143.113C162.571 143.779 161.601 144.928 160.59 146.433Z" fill="#191847"/>
<path fill-rule="evenodd" clip-rule="evenodd" d="M146.401 213.938L164.057 275.9L176.94 321.568H186.336L172.646 213.938H146.401Z" fill="#191847"/>
<path fill-rule="evenodd" clip-rule="evenodd" d="M141.679 213.938C141.27 245.874 139.878 263.293 139.449 266.194C139.02 269.095 132.536 287.554 119.998 321.568H129.732C145.694 288.937 154.605 270.479 156.464 266.194C158.322 261.909 164.059 244.491 172.699 213.938H141.679Z" fill="#2F3676"/>
<path fill-rule="evenodd" clip-rule="evenodd" d="M187.485 205.956L202.186 218.42C206.31 219.848 209.723 221.504 212.425 223.39C213.048 224.043 213.767 225.329 211.02 224.923C208.272 224.518 205.363 224.214 204.916 225.13C204.469 226.046 206.062 227.29 205.203 228.507C204.63 229.319 202.351 227.024 198.368 221.622L183.467 214.185L187.485 205.956ZM120.914 200.563L129.54 201.816C120.281 221.905 115.317 232.529 114.648 233.689C113.143 236.297 114.913 240.841 115.605 243.247C112.109 244.256 113.225 238.855 108.805 240.202C104.77 241.432 101.44 244.219 97.4444 240.905C96.9531 240.497 96.5392 239.164 98.1008 238.388C101.991 236.454 107.703 232.914 108.591 231.609C109.802 229.83 113.91 219.481 120.914 200.563Z" fill="#EEF2FE"/>
<path fill-rule="evenodd" clip-rule="evenodd" d="M156.966 165.399L162.311 163.631C169.562 181.743 180.375 199.268 198.442 214.07L193.974 221.778C178.096 212.425 163.066 205.159 156.966 191.124C154.919 186.414 156.799 171.031 156.966 165.399Z" fill="#C5CFD6"/>
<path fill-rule="evenodd" clip-rule="evenodd" d="M138.609 216.374C153.92 217.997 165.971 217.997 174.763 216.374C175.852 216.172 176.024 214.349 175.519 213.111C167.652 193.837 162.258 177.019 162.258 163.631C160.815 164.359 158.289 164.468 154.68 163.958C144.982 177.755 140.524 193.584 138.609 216.374Z" fill="#66BAA7"/>
<path fill-rule="evenodd" clip-rule="evenodd" d="M152.269 162.802H156.311C157.252 168.337 160.22 243.287 169.383 267.805H119.803C120.878 245.345 129.357 218.364 137.946 195.787C130.351 202.737 123.731 214.514 118.087 231.117L108.8 228.733C115.705 198.978 129.902 177.108 151.391 163.123C151.437 163.016 151.484 162.909 151.53 162.802H151.888C152.019 162.718 152.151 162.633 152.283 162.549L152.269 162.802Z" fill="#DDE3E9"/>
</g>
<defs>
<clipPath id="clip0_60_671">
<rect width="187" height="111" fill="white" transform="translate(47)"/>
</clipPath>
<clipPath id="clip1_60_671">
<rect width="234" height="113" fill="white" transform="translate(0 243)"/>
</clipPath>
<clipPath id="clip2_60_671">
<rect width="69" height="85" fill="white" transform="matrix(-1 0 0 1 343 26)"/>
</clipPath>
<clipPath id="clip3_60_671">
<rect width="155" height="113" fill="white" transform="translate(82 122)"/>
</clipPath>
</defs>
</svg>
